<svg width="375" height="48" viewBox="0 0 375 48" fill="none" xmlns="http://www.w3.org/2000/svg">
<g opacity="0.24">
<path d="M15.8375 36V34.684H18.5815V27.376H18.4695L16.2015 29.798L15.2355 28.93L17.7275 26.228H20.1355V34.684H22.5155V36H15.8375ZM30.112 27.6H25.772L25.52 31.058H25.618C25.73 30.862 25.8467 30.6893 25.968 30.54C26.0893 30.3813 26.2293 30.246 26.388 30.134C26.5467 30.022 26.7287 29.938 26.934 29.882C27.1393 29.8167 27.382 29.784 27.662 29.784C28.082 29.784 28.4693 29.854 28.824 29.994C29.188 30.134 29.5007 30.3347 29.762 30.596C30.0327 30.8573 30.2427 31.1793 30.392 31.562C30.5413 31.9353 30.616 32.36 30.616 32.836C30.616 33.3213 30.5367 33.7693 30.378 34.18C30.2287 34.5907 30.0047 34.9453 29.706 35.244C29.4073 35.5333 29.0387 35.762 28.6 35.93C28.1707 36.0887 27.6807 36.168 27.13 36.168C26.6913 36.168 26.304 36.1167 25.968 36.014C25.632 35.9207 25.3333 35.7947 25.072 35.636C24.82 35.468 24.596 35.2813 24.4 35.076C24.2133 34.8613 24.0453 34.642 23.896 34.418L25.044 33.508C25.1653 33.704 25.2913 33.8813 25.422 34.04C25.5527 34.1987 25.702 34.3387 25.87 34.46C26.038 34.5813 26.2247 34.6747 26.43 34.74C26.6447 34.8053 26.8873 34.838 27.158 34.838C27.7367 34.838 28.18 34.6793 28.488 34.362C28.8053 34.0447 28.964 33.606 28.964 33.046V32.878C28.964 32.318 28.8053 31.8793 28.488 31.562C28.18 31.2447 27.7367 31.086 27.158 31.086C26.738 31.086 26.402 31.1653 26.15 31.324C25.898 31.4827 25.6833 31.66 25.506 31.856L24.204 31.674L24.568 26.228H30.112V27.6Z" fill="black" fill-opacity="0.87"/>
</g>
<g opacity="0.64">
<path d="M65.3375 36V34.684H68.0815V27.376H67.9695L65.7015 29.798L64.7355 28.93L67.2275 26.228H69.6355V34.684H72.0155V36H65.3375ZM76.728 36.168C76.1867 36.168 75.7013 36.0793 75.272 35.902C74.852 35.7247 74.4927 35.4727 74.194 35.146C73.9047 34.81 73.6807 34.4087 73.522 33.942C73.3633 33.4753 73.284 32.948 73.284 32.36C73.284 31.6507 73.3913 30.9833 73.606 30.358C73.8207 29.7327 74.096 29.1587 74.432 28.636C74.768 28.1133 75.1413 27.6513 75.552 27.25C75.972 26.8393 76.3827 26.4987 76.784 26.228H78.884C78.3333 26.6293 77.8387 27.0167 77.4 27.39C76.9613 27.7633 76.5787 28.146 76.252 28.538C75.9253 28.93 75.65 29.3453 75.426 29.784C75.2113 30.2227 75.0433 30.7033 74.922 31.226L75.02 31.254C75.1227 31.058 75.2393 30.876 75.37 30.708C75.51 30.5307 75.6687 30.3767 75.846 30.246C76.0327 30.1153 76.2427 30.0127 76.476 29.938C76.7093 29.8633 76.98 29.826 77.288 29.826C77.6987 29.826 78.0767 29.896 78.422 30.036C78.7767 30.176 79.08 30.3813 79.332 30.652C79.5933 30.9133 79.794 31.2307 79.934 31.604C80.0833 31.9773 80.158 32.3927 80.158 32.85C80.158 33.3447 80.074 33.7973 79.906 34.208C79.7473 34.6093 79.5187 34.9547 79.22 35.244C78.9213 35.5333 78.5573 35.762 78.128 35.93C77.708 36.0887 77.2413 36.168 76.728 36.168ZM76.728 34.88C77.2973 34.88 77.7407 34.7307 78.058 34.432C78.3753 34.124 78.534 33.676 78.534 33.088V32.892C78.534 32.304 78.3753 31.8607 78.058 31.562C77.7407 31.254 77.2973 31.1 76.728 31.1C76.1587 31.1 75.7153 31.254 75.398 31.562C75.0807 31.8607 74.922 32.304 74.922 32.892V33.088C74.922 33.676 75.0807 34.124 75.398 34.432C75.7153 34.7307 76.1587 34.88 76.728 34.88Z" fill="black" fill-opacity="0.87"/>
</g>
<g opacity="0.64">
<path d="M121.837 36V34.684H124.581V27.376H124.469L122.201 29.798L121.235 28.93L123.727 26.228H126.135V34.684H128.515V36H121.837ZM131.394 36L134.936 27.53H131.24V29.336H129.882V26.228H136.504V27.6L133.06 36H131.394Z" fill="#807C78"/>
</g>
<g opacity="0.64">
<path d="M178.837 36V34.684H181.581V27.376H181.469L179.201 29.798L178.235 28.93L180.727 26.228H183.135V34.684H185.515V36H178.837ZM190.2 36.168C189.631 36.168 189.127 36.098 188.688 35.958C188.259 35.8087 187.895 35.608 187.596 35.356C187.307 35.104 187.083 34.8053 186.924 34.46C186.775 34.1147 186.7 33.7413 186.7 33.34C186.7 32.6867 186.877 32.164 187.232 31.772C187.596 31.3707 188.072 31.0907 188.66 30.932V30.82C188.156 30.6427 187.75 30.3627 187.442 29.98C187.143 29.5973 186.994 29.126 186.994 28.566C186.994 28.1927 187.064 27.852 187.204 27.544C187.353 27.236 187.563 26.9747 187.834 26.76C188.105 26.536 188.441 26.3633 188.842 26.242C189.243 26.1207 189.696 26.06 190.2 26.06C190.704 26.06 191.157 26.1207 191.558 26.242C191.959 26.3633 192.295 26.536 192.566 26.76C192.837 26.9747 193.042 27.236 193.182 27.544C193.331 27.852 193.406 28.1927 193.406 28.566C193.406 29.126 193.252 29.5973 192.944 29.98C192.645 30.3627 192.244 30.6427 191.74 30.82V30.932C192.328 31.0907 192.799 31.3707 193.154 31.772C193.518 32.164 193.7 32.6867 193.7 33.34C193.7 33.7413 193.621 34.1147 193.462 34.46C193.313 34.8053 193.089 35.104 192.79 35.356C192.501 35.608 192.137 35.8087 191.698 35.958C191.269 36.098 190.769 36.168 190.2 36.168ZM190.2 34.894C190.788 34.894 191.241 34.7587 191.558 34.488C191.885 34.2173 192.048 33.8393 192.048 33.354V33.074C192.048 32.5887 191.885 32.2107 191.558 31.94C191.241 31.6693 190.788 31.534 190.2 31.534C189.612 31.534 189.155 31.6693 188.828 31.94C188.511 32.2107 188.352 32.5887 188.352 33.074V33.354C188.352 33.8393 188.511 34.2173 188.828 34.488C189.155 34.7587 189.612 34.894 190.2 34.894ZM190.2 30.316C190.741 30.316 191.152 30.1993 191.432 29.966C191.721 29.7327 191.866 29.392 191.866 28.944V28.706C191.866 28.258 191.721 27.9173 191.432 27.684C191.152 27.4507 190.741 27.334 190.2 27.334C189.659 27.334 189.243 27.4507 188.954 27.684C188.674 27.9173 188.534 28.258 188.534 28.706V28.944C188.534 29.392 188.674 29.7327 188.954 29.966C189.243 30.1993 189.659 30.316 190.2 30.316Z" fill="#F27272"/>
</g>
<g opacity="0.64">
<path d="M233.837 36V34.684H236.581V27.376H236.469L234.201 29.798L233.235 28.93L235.727 26.228H238.135V34.684H240.515V36H233.837ZM248.616 29.868C248.616 30.5773 248.509 31.2447 248.294 31.87C248.079 32.4953 247.804 33.0693 247.468 33.592C247.132 34.1147 246.754 34.5813 246.334 34.992C245.923 35.4027 245.517 35.7387 245.116 36H243.016C243.567 35.5987 244.061 35.2113 244.5 34.838C244.939 34.4647 245.321 34.082 245.648 33.69C245.975 33.298 246.245 32.8827 246.46 32.444C246.684 32.0053 246.857 31.5247 246.978 31.002L246.88 30.974C246.777 31.17 246.656 31.3567 246.516 31.534C246.385 31.702 246.227 31.8513 246.04 31.982C245.863 32.1127 245.657 32.2153 245.424 32.29C245.191 32.3647 244.92 32.402 244.612 32.402C244.201 32.402 243.819 32.332 243.464 32.192C243.119 32.052 242.815 31.8513 242.554 31.59C242.302 31.3193 242.101 31.002 241.952 30.638C241.812 30.2647 241.742 29.8447 241.742 29.378C241.742 28.8927 241.821 28.4447 241.98 28.034C242.148 27.6233 242.381 27.2733 242.68 26.984C242.979 26.6947 243.338 26.4707 243.758 26.312C244.178 26.144 244.649 26.06 245.172 26.06C245.713 26.06 246.194 26.1487 246.614 26.326C247.043 26.5033 247.403 26.76 247.692 27.096C247.991 27.4227 248.219 27.8193 248.378 28.286C248.537 28.7527 248.616 29.28 248.616 29.868ZM245.172 31.128C245.741 31.128 246.185 30.9787 246.502 30.68C246.819 30.372 246.978 29.924 246.978 29.336V29.14C246.978 28.552 246.819 28.1087 246.502 27.81C246.185 27.502 245.741 27.348 245.172 27.348C244.603 27.348 244.159 27.502 243.842 27.81C243.525 28.1087 243.366 28.552 243.366 29.14V29.336C243.366 29.924 243.525 30.372 243.842 30.68C244.159 30.9787 244.603 31.128 245.172 31.128Z" fill="black" fill-opacity="0.87"/>
</g>
<g opacity="0.64">
<path d="M295.679 36H289.043V34.488L292.165 31.702C292.66 31.254 293.038 30.8293 293.299 30.428C293.57 30.0173 293.705 29.588 293.705 29.14V28.958C293.705 28.482 293.561 28.1087 293.271 27.838C292.991 27.5673 292.609 27.432 292.123 27.432C291.853 27.432 291.615 27.474 291.409 27.558C291.213 27.6327 291.041 27.74 290.891 27.88C290.742 28.02 290.616 28.1833 290.513 28.37C290.42 28.5567 290.345 28.7573 290.289 28.972L288.903 28.44C289.006 28.132 289.146 27.838 289.323 27.558C289.501 27.2687 289.725 27.012 289.995 26.788C290.266 26.564 290.583 26.3867 290.947 26.256C291.321 26.1253 291.755 26.06 292.249 26.06C292.744 26.06 293.187 26.1347 293.579 26.284C293.971 26.424 294.298 26.6247 294.559 26.886C294.83 27.138 295.035 27.4413 295.175 27.796C295.315 28.1507 295.385 28.538 295.385 28.958C295.385 29.35 295.325 29.714 295.203 30.05C295.082 30.386 294.914 30.7033 294.699 31.002C294.485 31.3007 294.233 31.5853 293.943 31.856C293.663 32.1267 293.365 32.402 293.047 32.682L290.751 34.656H295.679V36ZM300.7 36.168C300.093 36.168 299.566 36.056 299.118 35.832C298.67 35.5987 298.301 35.2673 298.012 34.838C297.723 34.4087 297.508 33.8813 297.368 33.256C297.228 32.6307 297.158 31.9167 297.158 31.114C297.158 30.3207 297.228 29.6113 297.368 28.986C297.508 28.3513 297.723 27.8193 298.012 27.39C298.301 26.9607 298.67 26.634 299.118 26.41C299.566 26.1767 300.093 26.06 300.7 26.06C301.913 26.06 302.805 26.5033 303.374 27.39C303.953 28.2767 304.242 29.518 304.242 31.114C304.242 32.71 303.953 33.9513 303.374 34.838C302.805 35.7247 301.913 36.168 300.7 36.168ZM300.7 34.824C301.036 34.824 301.321 34.7587 301.554 34.628C301.797 34.488 301.993 34.292 302.142 34.04C302.291 33.788 302.399 33.4893 302.464 33.144C302.529 32.7893 302.562 32.3973 302.562 31.968V30.26C302.562 29.8307 302.529 29.4433 302.464 29.098C302.399 28.7433 302.291 28.44 302.142 28.188C301.993 27.936 301.797 27.7447 301.554 27.614C301.321 27.474 301.036 27.404 300.7 27.404C300.364 27.404 300.075 27.474 299.832 27.614C299.599 27.7447 299.407 27.936 299.258 28.188C299.109 28.44 299.001 28.7433 298.936 29.098C298.871 29.4433 298.838 29.8307 298.838 30.26V31.968C298.838 32.3973 298.871 32.7893 298.936 33.144C299.001 33.4893 299.109 33.788 299.258 34.04C299.407 34.292 299.599 34.488 299.832 34.628C300.075 34.7587 300.364 34.824 300.7 34.824Z" fill="black" fill-opacity="0.87"/>
</g>
<path d="M351.179 36H344.543V34.488L347.665 31.702C348.16 31.254 348.538 30.8293 348.799 30.428C349.07 30.0173 349.205 29.588 349.205 29.14V28.958C349.205 28.482 349.061 28.1087 348.771 27.838C348.491 27.5673 348.109 27.432 347.623 27.432C347.353 27.432 347.115 27.474 346.909 27.558C346.713 27.6327 346.541 27.74 346.391 27.88C346.242 28.02 346.116 28.1833 346.013 28.37C345.92 28.5567 345.845 28.7573 345.789 28.972L344.403 28.44C344.506 28.132 344.646 27.838 344.823 27.558C345.001 27.2687 345.225 27.012 345.495 26.788C345.766 26.564 346.083 26.3867 346.447 26.256C346.821 26.1253 347.255 26.06 347.749 26.06C348.244 26.06 348.687 26.1347 349.079 26.284C349.471 26.424 349.798 26.6247 350.059 26.886C350.33 27.138 350.535 27.4413 350.675 27.796C350.815 28.1507 350.885 28.538 350.885 28.958C350.885 29.35 350.825 29.714 350.703 30.05C350.582 30.386 350.414 30.7033 350.199 31.002C349.985 31.3007 349.733 31.5853 349.443 31.856C349.163 32.1267 348.865 32.402 348.547 32.682L346.251 34.656H351.179V36ZM353.232 36V34.684H355.976V27.376H355.864L353.596 29.798L352.63 28.93L355.122 26.228H357.53V34.684H359.91V36H353.232Z" fill="black" fill-opacity="0.87"/>
<g opacity="0.56">
<path d="M69.6894 3.4V10H68.4394V6.56L68.5094 4.63H68.4894L66.6594 10H65.5294L63.7094 4.63H63.6894L63.7594 6.56V10H62.5094V3.4H64.5094L65.6994 7L66.1194 8.49H66.1394L66.5694 7.01L67.7494 3.4H69.6894ZM74.2559 3.3C74.9092 3.3 75.4726 3.43667 75.9459 3.71C76.4192 3.98333 76.7826 4.37333 77.0359 4.88C77.2959 5.38667 77.4259 5.99333 77.4259 6.7C77.4259 7.40667 77.2959 8.01333 77.0359 8.52C76.7826 9.02667 76.4192 9.41667 75.9459 9.69C75.4726 9.96333 74.9092 10.1 74.2559 10.1C73.6026 10.1 73.0359 9.96333 72.5559 9.69C72.0826 9.41667 71.7159 9.02667 71.4559 8.52C71.2026 8.01333 71.0759 7.40667 71.0759 6.7C71.0759 5.99333 71.2026 5.38667 71.4559 4.88C71.7159 4.37333 72.0826 3.98333 72.5559 3.71C73.0359 3.43667 73.6026 3.3 74.2559 3.3ZM74.2559 4.43C73.8826 4.43 73.5659 4.51667 73.3059 4.69C73.0459 4.86333 72.8459 5.12 72.7059 5.46C72.5726 5.79333 72.5059 6.20667 72.5059 6.7C72.5059 7.18667 72.5726 7.6 72.7059 7.94C72.8459 8.28 73.0459 8.53667 73.3059 8.71C73.5659 8.88333 73.8826 8.97 74.2559 8.97C74.6226 8.97 74.9359 8.88333 75.1959 8.71C75.4559 8.53667 75.6526 8.28 75.7859 7.94C75.9259 7.6 75.9959 7.18667 75.9959 6.7C75.9959 6.20667 75.9259 5.79333 75.7859 5.46C75.6526 5.12 75.4559 4.86333 75.1959 4.69C74.9359 4.51667 74.6226 4.43 74.2559 4.43ZM84.488 3.4V10H82.908L80.598 6.12L80.028 5.04H80.018L80.058 6.18V10H78.818V3.4H80.388L82.698 7.27L83.268 8.36H83.288L83.248 7.22V3.4H84.488Z" fill="#1D1617"/>
</g>
<g opacity="0.56">
<path d="M15.8061 3.3C16.4061 3.3 16.9328 3.40333 17.3861 3.61C17.8395 3.81667 18.2261 4.12333 18.5461 4.53L17.7761 5.42C17.5028 5.07333 17.2028 4.82 16.8761 4.66C16.5561 4.49333 16.1828 4.41 15.7561 4.41C15.4761 4.41 15.2428 4.44667 15.0561 4.52C14.8761 4.59333 14.7428 4.69 14.6561 4.81C14.5761 4.93 14.5361 5.06333 14.5361 5.21C14.5361 5.39 14.6061 5.54333 14.7461 5.67C14.8861 5.79 15.1261 5.89 15.4661 5.97L16.6961 6.25C17.3495 6.39667 17.8161 6.61667 18.0961 6.91C18.3828 7.19667 18.5261 7.57 18.5261 8.03C18.5261 8.46333 18.4128 8.83667 18.1861 9.15C17.9595 9.45667 17.6428 9.69333 17.2361 9.86C16.8295 10.02 16.3628 10.1 15.8361 10.1C15.3761 10.1 14.9528 10.0467 14.5661 9.94C14.1861 9.82667 13.8461 9.67333 13.5461 9.48C13.2461 9.28667 12.9961 9.06333 12.7961 8.81L13.5761 7.88C13.7295 8.09333 13.9195 8.28333 14.1461 8.45C14.3728 8.61667 14.6295 8.75 14.9161 8.85C15.2095 8.94333 15.5161 8.99 15.8361 8.99C16.1095 8.99 16.3395 8.96 16.5261 8.9C16.7195 8.83333 16.8628 8.74333 16.9561 8.63C17.0561 8.51 17.1061 8.36667 17.1061 8.2C17.1061 8.02667 17.0461 7.88 16.9261 7.76C16.8128 7.63333 16.5995 7.53667 16.2861 7.47L14.9461 7.17C14.5595 7.07667 14.2261 6.95667 13.9461 6.81C13.6728 6.65667 13.4628 6.46333 13.3161 6.23C13.1761 5.99 13.1061 5.70667 13.1061 5.38C13.1061 4.98667 13.2128 4.63333 13.4261 4.32C13.6395 4.00667 13.9461 3.76 14.3461 3.58C14.7528 3.39333 15.2395 3.3 15.8061 3.3ZM25.3417 3.4V7.4C25.3417 8.3 25.1017 8.97667 24.6217 9.43C24.1417 9.87667 23.4417 10.1 22.5217 10.1C21.6017 10.1 20.9017 9.87667 20.4217 9.43C19.9417 8.97667 19.7017 8.3 19.7017 7.4V3.4H21.0817V7.34C21.0817 7.89333 21.1983 8.30333 21.4317 8.57C21.6717 8.83667 22.035 8.97 22.5217 8.97C23.0083 8.97 23.3683 8.83667 23.6017 8.57C23.835 8.30333 23.9517 7.89333 23.9517 7.34V3.4H25.3417ZM32.6013 3.4V10H31.0213L28.7113 6.12L28.1413 5.04H28.1313L28.1713 6.18V10H26.9313V3.4H28.5013L30.8113 7.27L31.3813 8.36H31.4013L31.3613 7.22V3.4H32.6013Z" fill="#1D1617"/>
</g>
<g opacity="0.56">
<path d="M345.973 3.3C346.573 3.3 347.1 3.40333 347.553 3.61C348.006 3.81667 348.393 4.12333 348.713 4.53L347.943 5.42C347.67 5.07333 347.37 4.82 347.043 4.66C346.723 4.49333 346.35 4.41 345.923 4.41C345.643 4.41 345.41 4.44667 345.223 4.52C345.043 4.59333 344.91 4.69 344.823 4.81C344.743 4.93 344.703 5.06333 344.703 5.21C344.703 5.39 344.773 5.54333 344.913 5.67C345.053 5.79 345.293 5.89 345.633 5.97L346.863 6.25C347.516 6.39667 347.983 6.61667 348.263 6.91C348.55 7.19667 348.693 7.57 348.693 8.03C348.693 8.46333 348.58 8.83667 348.353 9.15C348.126 9.45667 347.81 9.69333 347.403 9.86C346.996 10.02 346.53 10.1 346.003 10.1C345.543 10.1 345.12 10.0467 344.733 9.94C344.353 9.82667 344.013 9.67333 343.713 9.48C343.413 9.28667 343.163 9.06333 342.963 8.81L343.743 7.88C343.896 8.09333 344.086 8.28333 344.313 8.45C344.54 8.61667 344.796 8.75 345.083 8.85C345.376 8.94333 345.683 8.99 346.003 8.99C346.276 8.99 346.506 8.96 346.693 8.9C346.886 8.83333 347.03 8.74333 347.123 8.63C347.223 8.51 347.273 8.36667 347.273 8.2C347.273 8.02667 347.213 7.88 347.093 7.76C346.98 7.63333 346.766 7.53667 346.453 7.47L345.113 7.17C344.726 7.07667 344.393 6.95667 344.113 6.81C343.84 6.65667 343.63 6.46333 343.483 6.23C343.343 5.99 343.273 5.70667 343.273 5.38C343.273 4.98667 343.38 4.63333 343.593 4.32C343.806 4.00667 344.113 3.76 344.513 3.58C344.92 3.39333 345.406 3.3 345.973 3.3ZM355.68 10H354.25L353.7 8.39H351.17L350.62 10H349.21L351.62 3.4H353.27L355.68 10ZM351.48 7.37H353.39L352.43 4.49L351.48 7.37ZM361.029 3.4V4.51H358.819V10H357.439V4.51H355.219V3.4H361.029Z" fill="#1D1617"/>
</g>
<g opacity="0.56">
<path d="M125.192 3.4V4.51H122.982V10H121.602V4.51H119.382V3.4H125.192ZM131.83 3.4V7.4C131.83 8.3 131.59 8.97667 131.11 9.43C130.63 9.87667 129.93 10.1 129.01 10.1C128.09 10.1 127.39 9.87667 126.91 9.43C126.43 8.97667 126.19 8.3 126.19 7.4V3.4H127.57V7.34C127.57 7.89333 127.687 8.30333 127.92 8.57C128.16 8.83667 128.523 8.97 129.01 8.97C129.497 8.97 129.857 8.83667 130.09 8.57C130.323 8.30333 130.44 7.89333 130.44 7.34V3.4H131.83ZM133.42 10V3.4H138.37V4.51H134.8V6.15H137.61V7.21H134.8V8.89H138.51V10H133.42Z" fill="#807C78"/>
</g>
<g opacity="0.56">
<path d="M175.43 10L173.51 3.4H174.98L176.28 8.85L177.6 3.4H178.92L180.26 8.85L181.55 3.4H182.96L181.04 10H179.49L178.57 6.4L178.26 4.84H178.24L177.93 6.4L177.02 10H175.43ZM184.024 10V3.4H188.974V4.51H185.404V6.15H188.214V7.21H185.404V8.89H189.114V10H184.024ZM192.902 3.4C193.936 3.4 194.736 3.68667 195.302 4.26C195.869 4.82667 196.152 5.64 196.152 6.7C196.152 7.75333 195.869 8.56667 195.302 9.14C194.736 9.71333 193.936 10 192.902 10H190.352V3.4H192.902ZM192.832 8.9C193.459 8.9 193.929 8.71333 194.242 8.34C194.562 7.96 194.722 7.41333 194.722 6.7C194.722 5.98667 194.562 5.44333 194.242 5.07C193.929 4.69 193.459 4.5 192.832 4.5H191.732V8.9H192.832Z" fill="#F27272"/>
</g>
<g opacity="0.56">
<path d="M236.16 3.4V4.51H233.95V10H232.57V4.51H230.35V3.4H236.16ZM242.958 3.4V10H241.578V3.4H242.958ZM238.668 3.4V10H237.288V3.4H238.668ZM242.298 6.11V7.22H237.978V6.11H242.298ZM250.19 3.4V7.4C250.19 8.3 249.95 8.97667 249.47 9.43C248.99 9.87667 248.29 10.1 247.37 10.1C246.45 10.1 245.75 9.87667 245.27 9.43C244.79 8.97667 244.55 8.3 244.55 7.4V3.4H245.93V7.34C245.93 7.89333 246.047 8.30333 246.28 8.57C246.52 8.83667 246.884 8.97 247.37 8.97C247.857 8.97 248.217 8.83667 248.45 8.57C248.684 8.30333 248.8 7.89333 248.8 7.34V3.4H250.19Z" fill="#1D1617"/>
</g>
<g opacity="0.56">
<path d="M293.792 4.51H290.232V6.19H293.042V7.3H290.232V10H288.852V3.4H293.792V4.51ZM297.885 3.4C298.632 3.4 299.219 3.58 299.645 3.94C300.072 4.3 300.285 4.78333 300.285 5.39C300.285 6.03667 300.072 6.53333 299.645 6.88C299.219 7.22 298.635 7.39 297.895 7.39L297.755 7.47H296.335V10H294.975V3.4H297.885ZM297.725 6.42C298.112 6.42 298.399 6.34333 298.585 6.19C298.779 6.03 298.875 5.78667 298.875 5.46C298.875 5.13333 298.779 4.89333 298.585 4.74C298.399 4.58 298.112 4.5 297.725 4.5H296.335V6.42H297.725ZM298.535 6.71L300.675 10H299.125L297.355 7.11L298.535 6.71ZM303.152 3.4V10H301.772V3.4H303.152Z" fill="#1D1617"/>
</g>
</svg>
