<svg width="368" height="152" viewBox="0 0 368 152" fill="none" xmlns="http://www.w3.org/2000/svg">
<g clip-path="url(#clip0_33_3457)">
<g clip-path="url(#clip1_33_3457)">
<path d="M22.7272 29.8183H16.3636C15.3594 29.8183 14.5454 30.6324 14.5454 31.6365V38.0001C14.5454 39.0043 15.3594 39.8183 16.3636 39.8183H22.7272C23.7314 39.8183 24.5454 39.0043 24.5454 38.0001V31.6365C24.5454 30.6324 23.7314 29.8183 22.7272 29.8183Z" fill="#EBEDF0"/>
<path d="M22.7272 43.4547H16.3636C15.3594 43.4547 14.5454 44.2687 14.5454 45.2729V51.6365C14.5454 52.6407 15.3594 53.4547 16.3636 53.4547H22.7272C23.7314 53.4547 24.5454 52.6407 24.5454 51.6365V45.2729C24.5454 44.2687 23.7314 43.4547 22.7272 43.4547Z" fill="#EBEDF0"/>
<path d="M22.7272 57.091H16.3636C15.3594 57.091 14.5454 57.9051 14.5454 58.9092V65.2729C14.5454 66.277 15.3594 67.091 16.3636 67.091H22.7272C23.7314 67.091 24.5454 66.277 24.5454 65.2729V58.9092C24.5454 57.9051 23.7314 57.091 22.7272 57.091Z" fill="#EBEDF0"/>
<path d="M22.7272 70.7274H16.3636C15.3594 70.7274 14.5454 71.5414 14.5454 72.5456V78.9092C14.5454 79.9134 15.3594 80.7274 16.3636 80.7274H22.7272C23.7314 80.7274 24.5454 79.9134 24.5454 78.9092V72.5456C24.5454 71.5414 23.7314 70.7274 22.7272 70.7274Z" fill="#EBEDF0"/>
<path d="M22.7272 84.3638H16.3636C15.3594 84.3638 14.5454 85.1778 14.5454 86.182V92.5456C14.5454 93.5497 15.3594 94.3638 16.3636 94.3638H22.7272C23.7314 94.3638 24.5454 93.5497 24.5454 92.5456V86.182C24.5454 85.1778 23.7314 84.3638 22.7272 84.3638Z" fill="#EBEDF0"/>
<path d="M22.7272 98.0001H16.3636C15.3594 98.0001 14.5454 98.8141 14.5454 99.8183V106.182C14.5454 107.186 15.3594 108 16.3636 108H22.7272C23.7314 108 24.5454 107.186 24.5454 106.182V99.8183C24.5454 98.8141 23.7314 98.0001 22.7272 98.0001Z" fill="#EBEDF0"/>
<path d="M22.7272 111.636H16.3636C15.3594 111.636 14.5454 112.451 14.5454 113.455V119.818C14.5454 120.822 15.3594 121.636 16.3636 121.636H22.7272C23.7314 121.636 24.5454 120.822 24.5454 119.818V113.455C24.5454 112.451 23.7314 111.636 22.7272 111.636Z" fill="#EBEDF0"/>
<path d="M36.3637 29.8183H30.0001C28.9959 29.8183 28.1819 30.6324 28.1819 31.6365V38.0001C28.1819 39.0043 28.9959 39.8183 30.0001 39.8183H36.3637C37.3679 39.8183 38.1819 39.0043 38.1819 38.0001V31.6365C38.1819 30.6324 37.3679 29.8183 36.3637 29.8183Z" fill="#EBEDF0"/>
<path d="M36.3636 43.4547H29.9999C28.9958 43.4547 28.1818 44.2687 28.1818 45.2729V51.6365C28.1818 52.6407 28.9958 53.4547 29.9999 53.4547H36.3636C37.3677 53.4547 38.1818 52.6407 38.1818 51.6365V45.2729C38.1818 44.2687 37.3677 43.4547 36.3636 43.4547Z" fill="#EBEDF0"/>
<path d="M36.3636 57.091H29.9999C28.9958 57.091 28.1818 57.9051 28.1818 58.9092V65.2729C28.1818 66.277 28.9958 67.091 29.9999 67.091H36.3636C37.3677 67.091 38.1818 66.277 38.1818 65.2729V58.9092C38.1818 57.9051 37.3677 57.091 36.3636 57.091Z" fill="#EBEDF0"/>
<path d="M36.3636 70.7274H29.9999C28.9958 70.7274 28.1818 71.5414 28.1818 72.5456V78.9092C28.1818 79.9134 28.9958 80.7274 29.9999 80.7274H36.3636C37.3677 80.7274 38.1818 79.9134 38.1818 78.9092V72.5456C38.1818 71.5414 37.3677 70.7274 36.3636 70.7274Z" fill="#EBEDF0"/>
<path d="M36.3636 84.3638H29.9999C28.9958 84.3638 28.1818 85.1778 28.1818 86.182V92.5456C28.1818 93.5497 28.9958 94.3638 29.9999 94.3638H36.3636C37.3677 94.3638 38.1818 93.5497 38.1818 92.5456V86.182C38.1818 85.1778 37.3677 84.3638 36.3636 84.3638Z" fill="#EBEDF0"/>
<path d="M36.3636 98.0001H29.9999C28.9958 98.0001 28.1818 98.8141 28.1818 99.8183V106.182C28.1818 107.186 28.9958 108 29.9999 108H36.3636C37.3677 108 38.1818 107.186 38.1818 106.182V99.8183C38.1818 98.8141 37.3677 98.0001 36.3636 98.0001Z" fill="#EBEDF0"/>
<path d="M36.3636 111.636H29.9999C28.9958 111.636 28.1818 112.451 28.1818 113.455V119.818C28.1818 120.822 28.9958 121.636 29.9999 121.636H36.3636C37.3677 121.636 38.1818 120.822 38.1818 119.818V113.455C38.1818 112.451 37.3677 111.636 36.3636 111.636Z" fill="#EBEDF0"/>
<path d="M49.9999 29.8183H43.6363C42.6321 29.8183 41.8181 30.6324 41.8181 31.6365V38.0001C41.8181 39.0043 42.6321 39.8183 43.6363 39.8183H49.9999C51.0041 39.8183 51.8181 39.0043 51.8181 38.0001V31.6365C51.8181 30.6324 51.0041 29.8183 49.9999 29.8183Z" fill="#EBEDF0"/>
<path d="M50.0001 43.4547H43.6364C42.6323 43.4547 41.8182 44.2687 41.8182 45.2729V51.6365C41.8182 52.6407 42.6323 53.4547 43.6364 53.4547H50.0001C51.0042 53.4547 51.8182 52.6407 51.8182 51.6365V45.2729C51.8182 44.2687 51.0042 43.4547 50.0001 43.4547Z" fill="#EBEDF0"/>
<path d="M50.0001 57.091H43.6364C42.6323 57.091 41.8182 57.9051 41.8182 58.9092V65.2729C41.8182 66.277 42.6323 67.091 43.6364 67.091H50.0001C51.0042 67.091 51.8182 66.277 51.8182 65.2729V58.9092C51.8182 57.9051 51.0042 57.091 50.0001 57.091Z" fill="#EBEDF0"/>
<path d="M50.0001 70.7274H43.6364C42.6323 70.7274 41.8182 71.5414 41.8182 72.5456V78.9092C41.8182 79.9134 42.6323 80.7274 43.6364 80.7274H50.0001C51.0042 80.7274 51.8182 79.9134 51.8182 78.9092V72.5456C51.8182 71.5414 51.0042 70.7274 50.0001 70.7274Z" fill="#EBEDF0"/>
<path d="M50.0001 84.3638H43.6364C42.6323 84.3638 41.8182 85.1778 41.8182 86.182V92.5456C41.8182 93.5497 42.6323 94.3638 43.6364 94.3638H50.0001C51.0042 94.3638 51.8182 93.5497 51.8182 92.5456V86.182C51.8182 85.1778 51.0042 84.3638 50.0001 84.3638Z" fill="#EBEDF0"/>
<path d="M50.0001 98.0001H43.6364C42.6323 98.0001 41.8182 98.8141 41.8182 99.8183V106.182C41.8182 107.186 42.6323 108 43.6364 108H50.0001C51.0042 108 51.8182 107.186 51.8182 106.182V99.8183C51.8182 98.8141 51.0042 98.0001 50.0001 98.0001Z" fill="#EBEDF0"/>
<path d="M50.0001 111.636H43.6364C42.6323 111.636 41.8182 112.451 41.8182 113.455V119.818C41.8182 120.822 42.6323 121.636 43.6364 121.636H50.0001C51.0042 121.636 51.8182 120.822 51.8182 119.818V113.455C51.8182 112.451 51.0042 111.636 50.0001 111.636Z" fill="#EBEDF0"/>
<path d="M63.6364 29.8183H57.2728C56.2686 29.8183 55.4546 30.6324 55.4546 31.6365V38.0001C55.4546 39.0043 56.2686 39.8183 57.2728 39.8183H63.6364C64.6406 39.8183 65.4546 39.0043 65.4546 38.0001V31.6365C65.4546 30.6324 64.6406 29.8183 63.6364 29.8183Z" fill="#EBEDF0"/>
<path d="M63.6364 43.4547H57.2728C56.2686 43.4547 55.4546 44.2687 55.4546 45.2729V51.6365C55.4546 52.6407 56.2686 53.4547 57.2728 53.4547H63.6364C64.6406 53.4547 65.4546 52.6407 65.4546 51.6365V45.2729C65.4546 44.2687 64.6406 43.4547 63.6364 43.4547Z" fill="#EBEDF0"/>
<path d="M63.6364 57.091H57.2728C56.2686 57.091 55.4546 57.9051 55.4546 58.9092V65.2729C55.4546 66.277 56.2686 67.091 57.2728 67.091H63.6364C64.6406 67.091 65.4546 66.277 65.4546 65.2729V58.9092C65.4546 57.9051 64.6406 57.091 63.6364 57.091Z" fill="#EBEDF0"/>
<path d="M63.6364 70.7274H57.2728C56.2686 70.7274 55.4546 71.5414 55.4546 72.5456V78.9092C55.4546 79.9134 56.2686 80.7274 57.2728 80.7274H63.6364C64.6406 80.7274 65.4546 79.9134 65.4546 78.9092V72.5456C65.4546 71.5414 64.6406 70.7274 63.6364 70.7274Z" fill="#9BE9A8"/>
<path d="M63.6364 84.3638H57.2728C56.2686 84.3638 55.4546 85.1778 55.4546 86.182V92.5456C55.4546 93.5497 56.2686 94.3638 57.2728 94.3638H63.6364C64.6406 94.3638 65.4546 93.5497 65.4546 92.5456V86.182C65.4546 85.1778 64.6406 84.3638 63.6364 84.3638Z" fill="#EBEDF0"/>
<path d="M63.6364 98.0001H57.2728C56.2686 98.0001 55.4546 98.8141 55.4546 99.8183V106.182C55.4546 107.186 56.2686 108 57.2728 108H63.6364C64.6406 108 65.4546 107.186 65.4546 106.182V99.8183C65.4546 98.8141 64.6406 98.0001 63.6364 98.0001Z" fill="#EBEDF0"/>
<path d="M63.6364 111.636H57.2728C56.2686 111.636 55.4546 112.451 55.4546 113.455V119.818C55.4546 120.822 56.2686 121.636 57.2728 121.636H63.6364C64.6406 121.636 65.4546 120.822 65.4546 119.818V113.455C65.4546 112.451 64.6406 111.636 63.6364 111.636Z" fill="#EBEDF0"/>
<path d="M77.2728 29.8183H70.9091C69.905 29.8183 69.0909 30.6324 69.0909 31.6365V38.0001C69.0909 39.0043 69.905 39.8183 70.9091 39.8183H77.2728C78.2769 39.8183 79.0909 39.0043 79.0909 38.0001V31.6365C79.0909 30.6324 78.2769 29.8183 77.2728 29.8183Z" fill="#EBEDF0"/>
<path d="M77.2728 43.4547H70.9091C69.905 43.4547 69.0909 44.2687 69.0909 45.2729V51.6365C69.0909 52.6407 69.905 53.4547 70.9091 53.4547H77.2728C78.2769 53.4547 79.0909 52.6407 79.0909 51.6365V45.2729C79.0909 44.2687 78.2769 43.4547 77.2728 43.4547Z" fill="#EBEDF0"/>
<path d="M77.2728 57.091H70.9091C69.905 57.091 69.0909 57.9051 69.0909 58.9092V65.2729C69.0909 66.277 69.905 67.091 70.9091 67.091H77.2728C78.2769 67.091 79.0909 66.277 79.0909 65.2729V58.9092C79.0909 57.9051 78.2769 57.091 77.2728 57.091Z" fill="#EBEDF0"/>
<path d="M77.2728 70.7274H70.9091C69.905 70.7274 69.0909 71.5414 69.0909 72.5456V78.9092C69.0909 79.9134 69.905 80.7274 70.9091 80.7274H77.2728C78.2769 80.7274 79.0909 79.9134 79.0909 78.9092V72.5456C79.0909 71.5414 78.2769 70.7274 77.2728 70.7274Z" fill="#EBEDF0"/>
<path d="M77.2728 84.3638H70.9091C69.905 84.3638 69.0909 85.1778 69.0909 86.182V92.5456C69.0909 93.5497 69.905 94.3638 70.9091 94.3638H77.2728C78.2769 94.3638 79.0909 93.5497 79.0909 92.5456V86.182C79.0909 85.1778 78.2769 84.3638 77.2728 84.3638Z" fill="#EBEDF0"/>
<path d="M77.2728 98.0001H70.9091C69.905 98.0001 69.0909 98.8141 69.0909 99.8183V106.182C69.0909 107.186 69.905 108 70.9091 108H77.2728C78.2769 108 79.0909 107.186 79.0909 106.182V99.8183C79.0909 98.8141 78.2769 98.0001 77.2728 98.0001Z" fill="#EBEDF0"/>
<path d="M77.2728 111.636H70.9091C69.905 111.636 69.0909 112.451 69.0909 113.455V119.818C69.0909 120.822 69.905 121.636 70.9091 121.636H77.2728C78.2769 121.636 79.0909 120.822 79.0909 119.818V113.455C79.0909 112.451 78.2769 111.636 77.2728 111.636Z" fill="#EBEDF0"/>
<path d="M90.9091 29.8183H84.5455C83.5413 29.8183 82.7273 30.6324 82.7273 31.6365V38.0001C82.7273 39.0043 83.5413 39.8183 84.5455 39.8183H90.9091C91.9133 39.8183 92.7273 39.0043 92.7273 38.0001V31.6365C92.7273 30.6324 91.9133 29.8183 90.9091 29.8183Z" fill="#EBEDF0"/>
<path d="M90.9091 43.4547H84.5455C83.5413 43.4547 82.7273 44.2687 82.7273 45.2729V51.6365C82.7273 52.6407 83.5413 53.4547 84.5455 53.4547H90.9091C91.9133 53.4547 92.7273 52.6407 92.7273 51.6365V45.2729C92.7273 44.2687 91.9133 43.4547 90.9091 43.4547Z" fill="#EBEDF0"/>
<path d="M90.9091 57.091H84.5455C83.5413 57.091 82.7273 57.9051 82.7273 58.9092V65.2729C82.7273 66.277 83.5413 67.091 84.5455 67.091H90.9091C91.9133 67.091 92.7273 66.277 92.7273 65.2729V58.9092C92.7273 57.9051 91.9133 57.091 90.9091 57.091Z" fill="#EBEDF0"/>
<path d="M90.9091 70.7274H84.5455C83.5413 70.7274 82.7273 71.5414 82.7273 72.5456V78.9092C82.7273 79.9134 83.5413 80.7274 84.5455 80.7274H90.9091C91.9133 80.7274 92.7273 79.9134 92.7273 78.9092V72.5456C92.7273 71.5414 91.9133 70.7274 90.9091 70.7274Z" fill="#EBEDF0"/>
<path d="M90.9091 84.3638H84.5455C83.5413 84.3638 82.7273 85.1778 82.7273 86.182V92.5456C82.7273 93.5497 83.5413 94.3638 84.5455 94.3638H90.9091C91.9133 94.3638 92.7273 93.5497 92.7273 92.5456V86.182C92.7273 85.1778 91.9133 84.3638 90.9091 84.3638Z" fill="#EBEDF0"/>
<path d="M90.9091 98.0001H84.5455C83.5413 98.0001 82.7273 98.8141 82.7273 99.8183V106.182C82.7273 107.186 83.5413 108 84.5455 108H90.9091C91.9133 108 92.7273 107.186 92.7273 106.182V99.8183C92.7273 98.8141 91.9133 98.0001 90.9091 98.0001Z" fill="#EBEDF0"/>
<path d="M90.9091 111.636H84.5455C83.5413 111.636 82.7273 112.451 82.7273 113.455V119.818C82.7273 120.822 83.5413 121.636 84.5455 121.636H90.9091C91.9133 121.636 92.7273 120.822 92.7273 119.818V113.455C92.7273 112.451 91.9133 111.636 90.9091 111.636Z" fill="#EBEDF0"/>
<path d="M104.545 29.8183H98.1818C97.1777 29.8183 96.3636 30.6324 96.3636 31.6365V38.0001C96.3636 39.0043 97.1777 39.8183 98.1818 39.8183H104.545C105.55 39.8183 106.364 39.0043 106.364 38.0001V31.6365C106.364 30.6324 105.55 29.8183 104.545 29.8183Z" fill="#EBEDF0"/>
<path d="M104.545 43.4547H98.1818C97.1777 43.4547 96.3636 44.2687 96.3636 45.2729V51.6365C96.3636 52.6407 97.1777 53.4547 98.1818 53.4547H104.545C105.55 53.4547 106.364 52.6407 106.364 51.6365V45.2729C106.364 44.2687 105.55 43.4547 104.545 43.4547Z" fill="#EBEDF0"/>
<path d="M104.545 57.091H98.1818C97.1777 57.091 96.3636 57.9051 96.3636 58.9092V65.2729C96.3636 66.277 97.1777 67.091 98.1818 67.091H104.545C105.55 67.091 106.364 66.277 106.364 65.2729V58.9092C106.364 57.9051 105.55 57.091 104.545 57.091Z" fill="#EBEDF0"/>
<path d="M104.545 70.7274H98.1818C97.1777 70.7274 96.3636 71.5414 96.3636 72.5456V78.9092C96.3636 79.9134 97.1777 80.7274 98.1818 80.7274H104.545C105.55 80.7274 106.364 79.9134 106.364 78.9092V72.5456C106.364 71.5414 105.55 70.7274 104.545 70.7274Z" fill="#EBEDF0"/>
<path d="M104.545 84.3638H98.1818C97.1777 84.3638 96.3636 85.1778 96.3636 86.182V92.5456C96.3636 93.5497 97.1777 94.3638 98.1818 94.3638H104.545C105.55 94.3638 106.364 93.5497 106.364 92.5456V86.182C106.364 85.1778 105.55 84.3638 104.545 84.3638Z" fill="#EBEDF0"/>
<path d="M104.545 98.0001H98.1818C97.1777 98.0001 96.3636 98.8141 96.3636 99.8183V106.182C96.3636 107.186 97.1777 108 98.1818 108H104.545C105.55 108 106.364 107.186 106.364 106.182V99.8183C106.364 98.8141 105.55 98.0001 104.545 98.0001Z" fill="#EBEDF0"/>
<path d="M104.545 111.636H98.1818C97.1777 111.636 96.3636 112.451 96.3636 113.455V119.818C96.3636 120.822 97.1777 121.636 98.1818 121.636H104.545C105.55 121.636 106.364 120.822 106.364 119.818V113.455C106.364 112.451 105.55 111.636 104.545 111.636Z" fill="#EBEDF0"/>
<path d="M118.182 29.8183H111.818C110.814 29.8183 110 30.6324 110 31.6365V38.0001C110 39.0043 110.814 39.8183 111.818 39.8183H118.182C119.186 39.8183 120 39.0043 120 38.0001V31.6365C120 30.6324 119.186 29.8183 118.182 29.8183Z" fill="#EBEDF0"/>
<path d="M118.182 43.4547H111.818C110.814 43.4547 110 44.2687 110 45.2729V51.6365C110 52.6407 110.814 53.4547 111.818 53.4547H118.182C119.186 53.4547 120 52.6407 120 51.6365V45.2729C120 44.2687 119.186 43.4547 118.182 43.4547Z" fill="#EBEDF0"/>
<path d="M118.182 57.091H111.818C110.814 57.091 110 57.9051 110 58.9092V65.2729C110 66.277 110.814 67.091 111.818 67.091H118.182C119.186 67.091 120 66.277 120 65.2729V58.9092C120 57.9051 119.186 57.091 118.182 57.091Z" fill="#EBEDF0"/>
<path d="M118.182 70.7274H111.818C110.814 70.7274 110 71.5414 110 72.5456V78.9092C110 79.9134 110.814 80.7274 111.818 80.7274H118.182C119.186 80.7274 120 79.9134 120 78.9092V72.5456C120 71.5414 119.186 70.7274 118.182 70.7274Z" fill="#EBEDF0"/>
<path d="M118.182 84.3638H111.818C110.814 84.3638 110 85.1778 110 86.182V92.5456C110 93.5497 110.814 94.3638 111.818 94.3638H118.182C119.186 94.3638 120 93.5497 120 92.5456V86.182C120 85.1778 119.186 84.3638 118.182 84.3638Z" fill="#EBEDF0"/>
<path d="M118.182 98.0001H111.818C110.814 98.0001 110 98.8141 110 99.8183V106.182C110 107.186 110.814 108 111.818 108H118.182C119.186 108 120 107.186 120 106.182V99.8183C120 98.8141 119.186 98.0001 118.182 98.0001Z" fill="#EBEDF0"/>
<path d="M118.182 111.636H111.818C110.814 111.636 110 112.451 110 113.455V119.818C110 120.822 110.814 121.636 111.818 121.636H118.182C119.186 121.636 120 120.822 120 119.818V113.455C120 112.451 119.186 111.636 118.182 111.636Z" fill="#EBEDF0"/>
<path d="M131.818 29.8183H125.455C124.451 29.8183 123.636 30.6324 123.636 31.6365V38.0001C123.636 39.0043 124.451 39.8183 125.455 39.8183H131.818C132.822 39.8183 133.636 39.0043 133.636 38.0001V31.6365C133.636 30.6324 132.822 29.8183 131.818 29.8183Z" fill="#EBEDF0"/>
<path d="M131.818 43.4547H125.455C124.45 43.4547 123.636 44.2687 123.636 45.2729V51.6365C123.636 52.6407 124.45 53.4547 125.455 53.4547H131.818C132.822 53.4547 133.636 52.6407 133.636 51.6365V45.2729C133.636 44.2687 132.822 43.4547 131.818 43.4547Z" fill="#EBEDF0"/>
<path d="M131.818 57.091H125.455C124.45 57.091 123.636 57.9051 123.636 58.9092V65.2729C123.636 66.277 124.45 67.091 125.455 67.091H131.818C132.822 67.091 133.636 66.277 133.636 65.2729V58.9092C133.636 57.9051 132.822 57.091 131.818 57.091Z" fill="#EBEDF0"/>
<path d="M131.818 70.7274H125.455C124.45 70.7274 123.636 71.5414 123.636 72.5456V78.9092C123.636 79.9134 124.45 80.7274 125.455 80.7274H131.818C132.822 80.7274 133.636 79.9134 133.636 78.9092V72.5456C133.636 71.5414 132.822 70.7274 131.818 70.7274Z" fill="#EBEDF0"/>
<path d="M131.818 84.3638H125.455C124.45 84.3638 123.636 85.1778 123.636 86.182V92.5456C123.636 93.5497 124.45 94.3638 125.455 94.3638H131.818C132.822 94.3638 133.636 93.5497 133.636 92.5456V86.182C133.636 85.1778 132.822 84.3638 131.818 84.3638Z" fill="#EBEDF0"/>
<path d="M131.818 98.0001H125.455C124.45 98.0001 123.636 98.8141 123.636 99.8183V106.182C123.636 107.186 124.45 108 125.455 108H131.818C132.822 108 133.636 107.186 133.636 106.182V99.8183C133.636 98.8141 132.822 98.0001 131.818 98.0001Z" fill="#9BE9A8"/>
<path d="M131.818 111.636H125.455C124.45 111.636 123.636 112.451 123.636 113.455V119.818C123.636 120.822 124.45 121.636 125.455 121.636H131.818C132.822 121.636 133.636 120.822 133.636 119.818V113.455C133.636 112.451 132.822 111.636 131.818 111.636Z" fill="#9BE9A8"/>
<path d="M145.455 29.8183H139.091C138.087 29.8183 137.273 30.6324 137.273 31.6365V38.0001C137.273 39.0043 138.087 39.8183 139.091 39.8183H145.455C146.459 39.8183 147.273 39.0043 147.273 38.0001V31.6365C147.273 30.6324 146.459 29.8183 145.455 29.8183Z" fill="#EBEDF0"/>
<path d="M145.455 43.4547H139.091C138.087 43.4547 137.273 44.2687 137.273 45.2729V51.6365C137.273 52.6407 138.087 53.4547 139.091 53.4547H145.455C146.459 53.4547 147.273 52.6407 147.273 51.6365V45.2729C147.273 44.2687 146.459 43.4547 145.455 43.4547Z" fill="#EBEDF0"/>
<path d="M145.455 57.091H139.091C138.087 57.091 137.273 57.9051 137.273 58.9092V65.2729C137.273 66.277 138.087 67.091 139.091 67.091H145.455C146.459 67.091 147.273 66.277 147.273 65.2729V58.9092C147.273 57.9051 146.459 57.091 145.455 57.091Z" fill="#EBEDF0"/>
<path d="M145.455 70.7274H139.091C138.087 70.7274 137.273 71.5414 137.273 72.5456V78.9092C137.273 79.9134 138.087 80.7274 139.091 80.7274H145.455C146.459 80.7274 147.273 79.9134 147.273 78.9092V72.5456C147.273 71.5414 146.459 70.7274 145.455 70.7274Z" fill="#EBEDF0"/>
<path d="M145.455 84.3638H139.091C138.087 84.3638 137.273 85.1778 137.273 86.182V92.5456C137.273 93.5497 138.087 94.3638 139.091 94.3638H145.455C146.459 94.3638 147.273 93.5497 147.273 92.5456V86.182C147.273 85.1778 146.459 84.3638 145.455 84.3638Z" fill="#EBEDF0"/>
<path d="M145.455 98.0001H139.091C138.087 98.0001 137.273 98.8141 137.273 99.8183V106.182C137.273 107.186 138.087 108 139.091 108H145.455C146.459 108 147.273 107.186 147.273 106.182V99.8183C147.273 98.8141 146.459 98.0001 145.455 98.0001Z" fill="#EBEDF0"/>
<path d="M145.455 111.636H139.091C138.087 111.636 137.273 112.451 137.273 113.455V119.818C137.273 120.822 138.087 121.636 139.091 121.636H145.455C146.459 121.636 147.273 120.822 147.273 119.818V113.455C147.273 112.451 146.459 111.636 145.455 111.636Z" fill="#EBEDF0"/>
<path d="M159.091 29.8183H152.727C151.723 29.8183 150.909 30.6324 150.909 31.6365V38.0001C150.909 39.0043 151.723 39.8183 152.727 39.8183H159.091C160.095 39.8183 160.909 39.0043 160.909 38.0001V31.6365C160.909 30.6324 160.095 29.8183 159.091 29.8183Z" fill="#EBEDF0"/>
<path d="M159.091 43.4547H152.727C151.723 43.4547 150.909 44.2687 150.909 45.2729V51.6365C150.909 52.6407 151.723 53.4547 152.727 53.4547H159.091C160.095 53.4547 160.909 52.6407 160.909 51.6365V45.2729C160.909 44.2687 160.095 43.4547 159.091 43.4547Z" fill="#EBEDF0"/>
<path d="M159.091 57.091H152.727C151.723 57.091 150.909 57.9051 150.909 58.9092V65.2729C150.909 66.277 151.723 67.091 152.727 67.091H159.091C160.095 67.091 160.909 66.277 160.909 65.2729V58.9092C160.909 57.9051 160.095 57.091 159.091 57.091Z" fill="#EBEDF0"/>
<path d="M159.091 70.7274H152.727C151.723 70.7274 150.909 71.5414 150.909 72.5456V78.9092C150.909 79.9134 151.723 80.7274 152.727 80.7274H159.091C160.095 80.7274 160.909 79.9134 160.909 78.9092V72.5456C160.909 71.5414 160.095 70.7274 159.091 70.7274Z" fill="#EBEDF0"/>
<path d="M159.091 84.3638H152.727C151.723 84.3638 150.909 85.1778 150.909 86.182V92.5456C150.909 93.5497 151.723 94.3638 152.727 94.3638H159.091C160.095 94.3638 160.909 93.5497 160.909 92.5456V86.182C160.909 85.1778 160.095 84.3638 159.091 84.3638Z" fill="#EBEDF0"/>
<path d="M159.091 98.0001H152.727C151.723 98.0001 150.909 98.8141 150.909 99.8183V106.182C150.909 107.186 151.723 108 152.727 108H159.091C160.095 108 160.909 107.186 160.909 106.182V99.8183C160.909 98.8141 160.095 98.0001 159.091 98.0001Z" fill="#EBEDF0"/>
<path d="M159.091 111.636H152.727C151.723 111.636 150.909 112.451 150.909 113.455V119.818C150.909 120.822 151.723 121.636 152.727 121.636H159.091C160.095 121.636 160.909 120.822 160.909 119.818V113.455C160.909 112.451 160.095 111.636 159.091 111.636Z" fill="#EBEDF0"/>
<path d="M172.727 29.8183H166.364C165.359 29.8183 164.545 30.6324 164.545 31.6365V38.0001C164.545 39.0043 165.359 39.8183 166.364 39.8183H172.727C173.731 39.8183 174.545 39.0043 174.545 38.0001V31.6365C174.545 30.6324 173.731 29.8183 172.727 29.8183Z" fill="#EBEDF0"/>
<path d="M172.727 43.4547H166.364C165.359 43.4547 164.545 44.2687 164.545 45.2729V51.6365C164.545 52.6407 165.359 53.4547 166.364 53.4547H172.727C173.731 53.4547 174.545 52.6407 174.545 51.6365V45.2729C174.545 44.2687 173.731 43.4547 172.727 43.4547Z" fill="#EBEDF0"/>
<path d="M172.727 57.091H166.364C165.359 57.091 164.545 57.9051 164.545 58.9092V65.2729C164.545 66.277 165.359 67.091 166.364 67.091H172.727C173.731 67.091 174.545 66.277 174.545 65.2729V58.9092C174.545 57.9051 173.731 57.091 172.727 57.091Z" fill="#EBEDF0"/>
<path d="M172.727 70.7274H166.364C165.359 70.7274 164.545 71.5414 164.545 72.5456V78.9092C164.545 79.9134 165.359 80.7274 166.364 80.7274H172.727C173.731 80.7274 174.545 79.9134 174.545 78.9092V72.5456C174.545 71.5414 173.731 70.7274 172.727 70.7274Z" fill="#EBEDF0"/>
<path d="M172.727 84.3638H166.364C165.359 84.3638 164.545 85.1778 164.545 86.182V92.5456C164.545 93.5497 165.359 94.3638 166.364 94.3638H172.727C173.731 94.3638 174.545 93.5497 174.545 92.5456V86.182C174.545 85.1778 173.731 84.3638 172.727 84.3638Z" fill="#EBEDF0"/>
<path d="M172.727 98.0001H166.364C165.359 98.0001 164.545 98.8141 164.545 99.8183V106.182C164.545 107.186 165.359 108 166.364 108H172.727C173.731 108 174.545 107.186 174.545 106.182V99.8183C174.545 98.8141 173.731 98.0001 172.727 98.0001Z" fill="#EBEDF0"/>
<path d="M172.727 111.636H166.364C165.359 111.636 164.545 112.451 164.545 113.455V119.818C164.545 120.822 165.359 121.636 166.364 121.636H172.727C173.731 121.636 174.545 120.822 174.545 119.818V113.455C174.545 112.451 173.731 111.636 172.727 111.636Z" fill="#EBEDF0"/>
<path d="M186.364 29.8183H180C178.996 29.8183 178.182 30.6324 178.182 31.6365V38.0001C178.182 39.0043 178.996 39.8183 180 39.8183H186.364C187.368 39.8183 188.182 39.0043 188.182 38.0001V31.6365C188.182 30.6324 187.368 29.8183 186.364 29.8183Z" fill="#EBEDF0"/>
<path d="M186.364 43.4547H180C178.996 43.4547 178.182 44.2687 178.182 45.2729V51.6365C178.182 52.6407 178.996 53.4547 180 53.4547H186.364C187.368 53.4547 188.182 52.6407 188.182 51.6365V45.2729C188.182 44.2687 187.368 43.4547 186.364 43.4547Z" fill="#EBEDF0"/>
<path d="M186.364 57.091H180C178.996 57.091 178.182 57.9051 178.182 58.9092V65.2729C178.182 66.277 178.996 67.091 180 67.091H186.364C187.368 67.091 188.182 66.277 188.182 65.2729V58.9092C188.182 57.9051 187.368 57.091 186.364 57.091Z" fill="#EBEDF0"/>
<path d="M186.364 70.7274H180C178.996 70.7274 178.182 71.5414 178.182 72.5456V78.9092C178.182 79.9134 178.996 80.7274 180 80.7274H186.364C187.368 80.7274 188.182 79.9134 188.182 78.9092V72.5456C188.182 71.5414 187.368 70.7274 186.364 70.7274Z" fill="#EBEDF0"/>
<path d="M186.364 84.3638H180C178.996 84.3638 178.182 85.1778 178.182 86.182V92.5456C178.182 93.5497 178.996 94.3638 180 94.3638H186.364C187.368 94.3638 188.182 93.5497 188.182 92.5456V86.182C188.182 85.1778 187.368 84.3638 186.364 84.3638Z" fill="#EBEDF0"/>
<path d="M186.364 98.0001H180C178.996 98.0001 178.182 98.8141 178.182 99.8183V106.182C178.182 107.186 178.996 108 180 108H186.364C187.368 108 188.182 107.186 188.182 106.182V99.8183C188.182 98.8141 187.368 98.0001 186.364 98.0001Z" fill="#EBEDF0"/>
<path d="M186.364 111.636H180C178.996 111.636 178.182 112.451 178.182 113.455V119.818C178.182 120.822 178.996 121.636 180 121.636H186.364C187.368 121.636 188.182 120.822 188.182 119.818V113.455C188.182 112.451 187.368 111.636 186.364 111.636Z" fill="#EBEDF0"/>
<path d="M200 29.8183H193.636C192.632 29.8183 191.818 30.6324 191.818 31.6365V38.0001C191.818 39.0043 192.632 39.8183 193.636 39.8183H200C201.004 39.8183 201.818 39.0043 201.818 38.0001V31.6365C201.818 30.6324 201.004 29.8183 200 29.8183Z" fill="#EBEDF0"/>
<path d="M200 43.4547H193.636C192.632 43.4547 191.818 44.2687 191.818 45.2729V51.6365C191.818 52.6407 192.632 53.4547 193.636 53.4547H200C201.004 53.4547 201.818 52.6407 201.818 51.6365V45.2729C201.818 44.2687 201.004 43.4547 200 43.4547Z" fill="#EBEDF0"/>
<path d="M200 57.091H193.636C192.632 57.091 191.818 57.9051 191.818 58.9092V65.2729C191.818 66.277 192.632 67.091 193.636 67.091H200C201.004 67.091 201.818 66.277 201.818 65.2729V58.9092C201.818 57.9051 201.004 57.091 200 57.091Z" fill="#EBEDF0"/>
<path d="M200 70.7274H193.636C192.632 70.7274 191.818 71.5414 191.818 72.5456V78.9092C191.818 79.9134 192.632 80.7274 193.636 80.7274H200C201.004 80.7274 201.818 79.9134 201.818 78.9092V72.5456C201.818 71.5414 201.004 70.7274 200 70.7274Z" fill="#EBEDF0"/>
<path d="M200 84.3638H193.636C192.632 84.3638 191.818 85.1778 191.818 86.182V92.5456C191.818 93.5497 192.632 94.3638 193.636 94.3638H200C201.004 94.3638 201.818 93.5497 201.818 92.5456V86.182C201.818 85.1778 201.004 84.3638 200 84.3638Z" fill="#EBEDF0"/>
<path d="M200 98.0001H193.636C192.632 98.0001 191.818 98.8141 191.818 99.8183V106.182C191.818 107.186 192.632 108 193.636 108H200C201.004 108 201.818 107.186 201.818 106.182V99.8183C201.818 98.8141 201.004 98.0001 200 98.0001Z" fill="#EBEDF0"/>
<path d="M200 111.636H193.636C192.632 111.636 191.818 112.451 191.818 113.455V119.818C191.818 120.822 192.632 121.636 193.636 121.636H200C201.004 121.636 201.818 120.822 201.818 119.818V113.455C201.818 112.451 201.004 111.636 200 111.636Z" fill="#EBEDF0"/>
<path d="M213.636 29.8183H207.273C206.269 29.8183 205.455 30.6324 205.455 31.6365V38.0001C205.455 39.0043 206.269 39.8183 207.273 39.8183H213.636C214.641 39.8183 215.455 39.0043 215.455 38.0001V31.6365C215.455 30.6324 214.641 29.8183 213.636 29.8183Z" fill="#EBEDF0"/>
<path d="M213.636 43.4547H207.273C206.269 43.4547 205.455 44.2687 205.455 45.2729V51.6365C205.455 52.6407 206.269 53.4547 207.273 53.4547H213.636C214.641 53.4547 215.455 52.6407 215.455 51.6365V45.2729C215.455 44.2687 214.641 43.4547 213.636 43.4547Z" fill="#EBEDF0"/>
<path d="M213.636 57.091H207.273C206.269 57.091 205.455 57.9051 205.455 58.9092V65.2729C205.455 66.277 206.269 67.091 207.273 67.091H213.636C214.641 67.091 215.455 66.277 215.455 65.2729V58.9092C215.455 57.9051 214.641 57.091 213.636 57.091Z" fill="#EBEDF0"/>
<path d="M213.636 70.7274H207.273C206.269 70.7274 205.455 71.5414 205.455 72.5456V78.9092C205.455 79.9134 206.269 80.7274 207.273 80.7274H213.636C214.641 80.7274 215.455 79.9134 215.455 78.9092V72.5456C215.455 71.5414 214.641 70.7274 213.636 70.7274Z" fill="#EBEDF0"/>
<path d="M213.636 84.3638H207.273C206.269 84.3638 205.455 85.1778 205.455 86.182V92.5456C205.455 93.5497 206.269 94.3638 207.273 94.3638H213.636C214.641 94.3638 215.455 93.5497 215.455 92.5456V86.182C215.455 85.1778 214.641 84.3638 213.636 84.3638Z" fill="#EBEDF0"/>
<path d="M213.636 98.0001H207.273C206.269 98.0001 205.455 98.8141 205.455 99.8183V106.182C205.455 107.186 206.269 108 207.273 108H213.636C214.641 108 215.455 107.186 215.455 106.182V99.8183C215.455 98.8141 214.641 98.0001 213.636 98.0001Z" fill="#EBEDF0"/>
<path d="M213.636 111.636H207.273C206.269 111.636 205.455 112.451 205.455 113.455V119.818C205.455 120.822 206.269 121.636 207.273 121.636H213.636C214.641 121.636 215.455 120.822 215.455 119.818V113.455C215.455 112.451 214.641 111.636 213.636 111.636Z" fill="#EBEDF0"/>
<path d="M227.273 29.8183H220.909C219.905 29.8183 219.091 30.6324 219.091 31.6365V38.0001C219.091 39.0043 219.905 39.8183 220.909 39.8183H227.273C228.277 39.8183 229.091 39.0043 229.091 38.0001V31.6365C229.091 30.6324 228.277 29.8183 227.273 29.8183Z" fill="#EBEDF0"/>
<path d="M227.273 43.4547H220.909C219.905 43.4547 219.091 44.2687 219.091 45.2729V51.6365C219.091 52.6407 219.905 53.4547 220.909 53.4547H227.273C228.277 53.4547 229.091 52.6407 229.091 51.6365V45.2729C229.091 44.2687 228.277 43.4547 227.273 43.4547Z" fill="#EBEDF0"/>
<path d="M227.273 57.091H220.909C219.905 57.091 219.091 57.9051 219.091 58.9092V65.2729C219.091 66.277 219.905 67.091 220.909 67.091H227.273C228.277 67.091 229.091 66.277 229.091 65.2729V58.9092C229.091 57.9051 228.277 57.091 227.273 57.091Z" fill="#EBEDF0"/>
<path d="M227.273 70.7274H220.909C219.905 70.7274 219.091 71.5414 219.091 72.5456V78.9092C219.091 79.9134 219.905 80.7274 220.909 80.7274H227.273C228.277 80.7274 229.091 79.9134 229.091 78.9092V72.5456C229.091 71.5414 228.277 70.7274 227.273 70.7274Z" fill="#EBEDF0"/>
<path d="M227.273 84.3638H220.909C219.905 84.3638 219.091 85.1778 219.091 86.182V92.5456C219.091 93.5497 219.905 94.3638 220.909 94.3638H227.273C228.277 94.3638 229.091 93.5497 229.091 92.5456V86.182C229.091 85.1778 228.277 84.3638 227.273 84.3638Z" fill="#EBEDF0"/>
<path d="M227.273 98.0001H220.909C219.905 98.0001 219.091 98.8141 219.091 99.8183V106.182C219.091 107.186 219.905 108 220.909 108H227.273C228.277 108 229.091 107.186 229.091 106.182V99.8183C229.091 98.8141 228.277 98.0001 227.273 98.0001Z" fill="#EBEDF0"/>
<path d="M227.273 111.636H220.909C219.905 111.636 219.091 112.451 219.091 113.455V119.818C219.091 120.822 219.905 121.636 220.909 121.636H227.273C228.277 121.636 229.091 120.822 229.091 119.818V113.455C229.091 112.451 228.277 111.636 227.273 111.636Z" fill="#EBEDF0"/>
<path d="M240.909 29.8183H234.545C233.541 29.8183 232.727 30.6324 232.727 31.6365V38.0001C232.727 39.0043 233.541 39.8183 234.545 39.8183H240.909C241.913 39.8183 242.727 39.0043 242.727 38.0001V31.6365C242.727 30.6324 241.913 29.8183 240.909 29.8183Z" fill="#EBEDF0"/>
<path d="M240.909 43.4547H234.545C233.541 43.4547 232.727 44.2687 232.727 45.2729V51.6365C232.727 52.6407 233.541 53.4547 234.545 53.4547H240.909C241.913 53.4547 242.727 52.6407 242.727 51.6365V45.2729C242.727 44.2687 241.913 43.4547 240.909 43.4547Z" fill="#EBEDF0"/>
<path d="M240.909 57.091H234.545C233.541 57.091 232.727 57.9051 232.727 58.9092V65.2729C232.727 66.277 233.541 67.091 234.545 67.091H240.909C241.913 67.091 242.727 66.277 242.727 65.2729V58.9092C242.727 57.9051 241.913 57.091 240.909 57.091Z" fill="#EBEDF0"/>
<path d="M240.909 70.7274H234.545C233.541 70.7274 232.727 71.5414 232.727 72.5456V78.9092C232.727 79.9134 233.541 80.7274 234.545 80.7274H240.909C241.913 80.7274 242.727 79.9134 242.727 78.9092V72.5456C242.727 71.5414 241.913 70.7274 240.909 70.7274Z" fill="#EBEDF0"/>
<path d="M240.909 84.3638H234.545C233.541 84.3638 232.727 85.1778 232.727 86.182V92.5456C232.727 93.5497 233.541 94.3638 234.545 94.3638H240.909C241.913 94.3638 242.727 93.5497 242.727 92.5456V86.182C242.727 85.1778 241.913 84.3638 240.909 84.3638Z" fill="#EBEDF0"/>
<path d="M240.909 98.0001H234.545C233.541 98.0001 232.727 98.8141 232.727 99.8183V106.182C232.727 107.186 233.541 108 234.545 108H240.909C241.913 108 242.727 107.186 242.727 106.182V99.8183C242.727 98.8141 241.913 98.0001 240.909 98.0001Z" fill="#EBEDF0"/>
<path d="M240.909 111.636H234.545C233.541 111.636 232.727 112.451 232.727 113.455V119.818C232.727 120.822 233.541 121.636 234.545 121.636H240.909C241.913 121.636 242.727 120.822 242.727 119.818V113.455C242.727 112.451 241.913 111.636 240.909 111.636Z" fill="#EBEDF0"/>
<path d="M254.545 29.8183H248.182C247.178 29.8183 246.364 30.6324 246.364 31.6365V38.0001C246.364 39.0043 247.178 39.8183 248.182 39.8183H254.545C255.55 39.8183 256.364 39.0043 256.364 38.0001V31.6365C256.364 30.6324 255.55 29.8183 254.545 29.8183Z" fill="#EBEDF0"/>
<path d="M254.545 43.4547H248.182C247.178 43.4547 246.364 44.2687 246.364 45.2729V51.6365C246.364 52.6407 247.178 53.4547 248.182 53.4547H254.545C255.55 53.4547 256.364 52.6407 256.364 51.6365V45.2729C256.364 44.2687 255.55 43.4547 254.545 43.4547Z" fill="#EBEDF0"/>
<path d="M254.545 57.091H248.182C247.178 57.091 246.364 57.9051 246.364 58.9092V65.2729C246.364 66.277 247.178 67.091 248.182 67.091H254.545C255.55 67.091 256.364 66.277 256.364 65.2729V58.9092C256.364 57.9051 255.55 57.091 254.545 57.091Z" fill="#EBEDF0"/>
<path d="M254.545 70.7274H248.182C247.178 70.7274 246.364 71.5414 246.364 72.5456V78.9092C246.364 79.9134 247.178 80.7274 248.182 80.7274H254.545C255.55 80.7274 256.364 79.9134 256.364 78.9092V72.5456C256.364 71.5414 255.55 70.7274 254.545 70.7274Z" fill="#EBEDF0"/>
<path d="M254.545 84.3638H248.182C247.178 84.3638 246.364 85.1778 246.364 86.182V92.5456C246.364 93.5497 247.178 94.3638 248.182 94.3638H254.545C255.55 94.3638 256.364 93.5497 256.364 92.5456V86.182C256.364 85.1778 255.55 84.3638 254.545 84.3638Z" fill="#EBEDF0"/>
<path d="M254.545 98.0001H248.182C247.178 98.0001 246.364 98.8141 246.364 99.8183V106.182C246.364 107.186 247.178 108 248.182 108H254.545C255.55 108 256.364 107.186 256.364 106.182V99.8183C256.364 98.8141 255.55 98.0001 254.545 98.0001Z" fill="#EBEDF0"/>
<path d="M254.545 111.636H248.182C247.178 111.636 246.364 112.451 246.364 113.455V119.818C246.364 120.822 247.178 121.636 248.182 121.636H254.545C255.55 121.636 256.364 120.822 256.364 119.818V113.455C256.364 112.451 255.55 111.636 254.545 111.636Z" fill="#EBEDF0"/>
<path d="M268.182 29.8183H261.818C260.814 29.8183 260 30.6324 260 31.6365V38.0001C260 39.0043 260.814 39.8183 261.818 39.8183H268.182C269.186 39.8183 270 39.0043 270 38.0001V31.6365C270 30.6324 269.186 29.8183 268.182 29.8183Z" fill="#EBEDF0"/>
<path d="M268.182 43.4547H261.818C260.814 43.4547 260 44.2687 260 45.2729V51.6365C260 52.6407 260.814 53.4547 261.818 53.4547H268.182C269.186 53.4547 270 52.6407 270 51.6365V45.2729C270 44.2687 269.186 43.4547 268.182 43.4547Z" fill="#40C463"/>
<path d="M268.182 57.091H261.818C260.814 57.091 260 57.9051 260 58.9092V65.2729C260 66.277 260.814 67.091 261.818 67.091H268.182C269.186 67.091 270 66.277 270 65.2729V58.9092C270 57.9051 269.186 57.091 268.182 57.091Z" fill="#9BE9A8"/>
<path d="M268.182 70.7274H261.818C260.814 70.7274 260 71.5414 260 72.5456V78.9092C260 79.9134 260.814 80.7274 261.818 80.7274H268.182C269.186 80.7274 270 79.9134 270 78.9092V72.5456C270 71.5414 269.186 70.7274 268.182 70.7274Z" fill="#9BE9A8"/>
<path d="M268.182 84.3638H261.818C260.814 84.3638 260 85.1778 260 86.182V92.5456C260 93.5497 260.814 94.3638 261.818 94.3638H268.182C269.186 94.3638 270 93.5497 270 92.5456V86.182C270 85.1778 269.186 84.3638 268.182 84.3638Z" fill="#EBEDF0"/>
<path d="M268.182 98.0001H261.818C260.814 98.0001 260 98.8141 260 99.8183V106.182C260 107.186 260.814 108 261.818 108H268.182C269.186 108 270 107.186 270 106.182V99.8183C270 98.8141 269.186 98.0001 268.182 98.0001Z" fill="#EBEDF0"/>
<path d="M268.182 111.636H261.818C260.814 111.636 260 112.451 260 113.455V119.818C260 120.822 260.814 121.636 261.818 121.636H268.182C269.186 121.636 270 120.822 270 119.818V113.455C270 112.451 269.186 111.636 268.182 111.636Z" fill="#EBEDF0"/>
<path d="M281.818 29.8183H275.455C274.451 29.8183 273.636 30.6324 273.636 31.6365V38.0001C273.636 39.0043 274.451 39.8183 275.455 39.8183H281.818C282.822 39.8183 283.636 39.0043 283.636 38.0001V31.6365C283.636 30.6324 282.822 29.8183 281.818 29.8183Z" fill="#EBEDF0"/>
<path d="M281.818 43.4547H275.455C274.45 43.4547 273.636 44.2687 273.636 45.2729V51.6365C273.636 52.6407 274.45 53.4547 275.455 53.4547H281.818C282.822 53.4547 283.636 52.6407 283.636 51.6365V45.2729C283.636 44.2687 282.822 43.4547 281.818 43.4547Z" fill="#EBEDF0"/>
<path d="M281.818 57.091H275.455C274.45 57.091 273.636 57.9051 273.636 58.9092V65.2729C273.636 66.277 274.45 67.091 275.455 67.091H281.818C282.822 67.091 283.636 66.277 283.636 65.2729V58.9092C283.636 57.9051 282.822 57.091 281.818 57.091Z" fill="#EBEDF0"/>
<path d="M281.818 70.7274H275.455C274.45 70.7274 273.636 71.5414 273.636 72.5456V78.9092C273.636 79.9134 274.45 80.7274 275.455 80.7274H281.818C282.822 80.7274 283.636 79.9134 283.636 78.9092V72.5456C283.636 71.5414 282.822 70.7274 281.818 70.7274Z" fill="#9BE9A8"/>
<path d="M281.818 84.3638H275.455C274.45 84.3638 273.636 85.1778 273.636 86.182V92.5456C273.636 93.5497 274.45 94.3638 275.455 94.3638H281.818C282.822 94.3638 283.636 93.5497 283.636 92.5456V86.182C283.636 85.1778 282.822 84.3638 281.818 84.3638Z" fill="#EBEDF0"/>
<path d="M281.818 98.0001H275.455C274.45 98.0001 273.636 98.8141 273.636 99.8183V106.182C273.636 107.186 274.45 108 275.455 108H281.818C282.822 108 283.636 107.186 283.636 106.182V99.8183C283.636 98.8141 282.822 98.0001 281.818 98.0001Z" fill="#EBEDF0"/>
<path d="M281.818 111.636H275.455C274.45 111.636 273.636 112.451 273.636 113.455V119.818C273.636 120.822 274.45 121.636 275.455 121.636H281.818C282.822 121.636 283.636 120.822 283.636 119.818V113.455C283.636 112.451 282.822 111.636 281.818 111.636Z" fill="#EBEDF0"/>
<path d="M295.455 29.8183H289.091C288.087 29.8183 287.273 30.6324 287.273 31.6365V38.0001C287.273 39.0043 288.087 39.8183 289.091 39.8183H295.455C296.459 39.8183 297.273 39.0043 297.273 38.0001V31.6365C297.273 30.6324 296.459 29.8183 295.455 29.8183Z" fill="#EBEDF0"/>
<path d="M295.455 43.4547H289.091C288.087 43.4547 287.273 44.2687 287.273 45.2729V51.6365C287.273 52.6407 288.087 53.4547 289.091 53.4547H295.455C296.459 53.4547 297.273 52.6407 297.273 51.6365V45.2729C297.273 44.2687 296.459 43.4547 295.455 43.4547Z" fill="#EBEDF0"/>
<path d="M295.455 57.091H289.091C288.087 57.091 287.273 57.9051 287.273 58.9092V65.2729C287.273 66.277 288.087 67.091 289.091 67.091H295.455C296.459 67.091 297.273 66.277 297.273 65.2729V58.9092C297.273 57.9051 296.459 57.091 295.455 57.091Z" fill="#EBEDF0"/>
<path d="M295.455 70.7274H289.091C288.087 70.7274 287.273 71.5414 287.273 72.5456V78.9092C287.273 79.9134 288.087 80.7274 289.091 80.7274H295.455C296.459 80.7274 297.273 79.9134 297.273 78.9092V72.5456C297.273 71.5414 296.459 70.7274 295.455 70.7274Z" fill="#EBEDF0"/>
<path d="M295.455 84.3638H289.091C288.087 84.3638 287.273 85.1778 287.273 86.182V92.5456C287.273 93.5497 288.087 94.3638 289.091 94.3638H295.455C296.459 94.3638 297.273 93.5497 297.273 92.5456V86.182C297.273 85.1778 296.459 84.3638 295.455 84.3638Z" fill="#EBEDF0"/>
<path d="M295.455 98.0001H289.091C288.087 98.0001 287.273 98.8141 287.273 99.8183V106.182C287.273 107.186 288.087 108 289.091 108H295.455C296.459 108 297.273 107.186 297.273 106.182V99.8183C297.273 98.8141 296.459 98.0001 295.455 98.0001Z" fill="#EBEDF0"/>
<path d="M295.455 111.636H289.091C288.087 111.636 287.273 112.451 287.273 113.455V119.818C287.273 120.822 288.087 121.636 289.091 121.636H295.455C296.459 121.636 297.273 120.822 297.273 119.818V113.455C297.273 112.451 296.459 111.636 295.455 111.636Z" fill="#EBEDF0"/>
<path d="M309.091 29.8183H302.727C301.723 29.8183 300.909 30.6324 300.909 31.6365V38.0001C300.909 39.0043 301.723 39.8183 302.727 39.8183H309.091C310.095 39.8183 310.909 39.0043 310.909 38.0001V31.6365C310.909 30.6324 310.095 29.8183 309.091 29.8183Z" fill="#EBEDF0"/>
<path d="M309.091 43.4547H302.727C301.723 43.4547 300.909 44.2687 300.909 45.2729V51.6365C300.909 52.6407 301.723 53.4547 302.727 53.4547H309.091C310.095 53.4547 310.909 52.6407 310.909 51.6365V45.2729C310.909 44.2687 310.095 43.4547 309.091 43.4547Z" fill="#EBEDF0"/>
<path d="M309.091 57.091H302.727C301.723 57.091 300.909 57.9051 300.909 58.9092V65.2729C300.909 66.277 301.723 67.091 302.727 67.091H309.091C310.095 67.091 310.909 66.277 310.909 65.2729V58.9092C310.909 57.9051 310.095 57.091 309.091 57.091Z" fill="#EBEDF0"/>
<path d="M309.091 70.7274H302.727C301.723 70.7274 300.909 71.5414 300.909 72.5456V78.9092C300.909 79.9134 301.723 80.7274 302.727 80.7274H309.091C310.095 80.7274 310.909 79.9134 310.909 78.9092V72.5456C310.909 71.5414 310.095 70.7274 309.091 70.7274Z" fill="#EBEDF0"/>
<path d="M309.091 84.3638H302.727C301.723 84.3638 300.909 85.1778 300.909 86.182V92.5456C300.909 93.5497 301.723 94.3638 302.727 94.3638H309.091C310.095 94.3638 310.909 93.5497 310.909 92.5456V86.182C310.909 85.1778 310.095 84.3638 309.091 84.3638Z" fill="#EBEDF0"/>
<path d="M309.091 98.0001H302.727C301.723 98.0001 300.909 98.8141 300.909 99.8183V106.182C300.909 107.186 301.723 108 302.727 108H309.091C310.095 108 310.909 107.186 310.909 106.182V99.8183C310.909 98.8141 310.095 98.0001 309.091 98.0001Z" fill="#EBEDF0"/>
<path d="M309.091 111.636H302.727C301.723 111.636 300.909 112.451 300.909 113.455V119.818C300.909 120.822 301.723 121.636 302.727 121.636H309.091C310.095 121.636 310.909 120.822 310.909 119.818V113.455C310.909 112.451 310.095 111.636 309.091 111.636Z" fill="#EBEDF0"/>
<path d="M322.727 29.8183H316.364C315.359 29.8183 314.545 30.6324 314.545 31.6365V38.0001C314.545 39.0043 315.359 39.8183 316.364 39.8183H322.727C323.731 39.8183 324.545 39.0043 324.545 38.0001V31.6365C324.545 30.6324 323.731 29.8183 322.727 29.8183Z" fill="#EBEDF0"/>
<path d="M322.727 43.4547H316.364C315.359 43.4547 314.545 44.2687 314.545 45.2729V51.6365C314.545 52.6407 315.359 53.4547 316.364 53.4547H322.727C323.731 53.4547 324.545 52.6407 324.545 51.6365V45.2729C324.545 44.2687 323.731 43.4547 322.727 43.4547Z" fill="#EBEDF0"/>
<path d="M322.727 57.091H316.364C315.359 57.091 314.545 57.9051 314.545 58.9092V65.2729C314.545 66.277 315.359 67.091 316.364 67.091H322.727C323.731 67.091 324.545 66.277 324.545 65.2729V58.9092C324.545 57.9051 323.731 57.091 322.727 57.091Z" fill="#EBEDF0"/>
<path d="M322.727 70.7274H316.364C315.359 70.7274 314.545 71.5414 314.545 72.5456V78.9092C314.545 79.9134 315.359 80.7274 316.364 80.7274H322.727C323.731 80.7274 324.545 79.9134 324.545 78.9092V72.5456C324.545 71.5414 323.731 70.7274 322.727 70.7274Z" fill="#EBEDF0"/>
<path d="M322.727 84.3638H316.364C315.359 84.3638 314.545 85.1778 314.545 86.182V92.5456C314.545 93.5497 315.359 94.3638 316.364 94.3638H322.727C323.731 94.3638 324.545 93.5497 324.545 92.5456V86.182C324.545 85.1778 323.731 84.3638 322.727 84.3638Z" fill="#EBEDF0"/>
<path d="M322.727 98.0001H316.364C315.359 98.0001 314.545 98.8141 314.545 99.8183V106.182C314.545 107.186 315.359 108 316.364 108H322.727C323.731 108 324.545 107.186 324.545 106.182V99.8183C324.545 98.8141 323.731 98.0001 322.727 98.0001Z" fill="#EBEDF0"/>
<path d="M322.727 111.636H316.364C315.359 111.636 314.545 112.451 314.545 113.455V119.818C314.545 120.822 315.359 121.636 316.364 121.636H322.727C323.731 121.636 324.545 120.822 324.545 119.818V113.455C324.545 112.451 323.731 111.636 322.727 111.636Z" fill="#EBEDF0"/>
<path d="M336.364 29.8183H330C328.996 29.8183 328.182 30.6324 328.182 31.6365V38.0001C328.182 39.0043 328.996 39.8183 330 39.8183H336.364C337.368 39.8183 338.182 39.0043 338.182 38.0001V31.6365C338.182 30.6324 337.368 29.8183 336.364 29.8183Z" fill="#EBEDF0"/>
<path d="M336.364 43.4547H330C328.996 43.4547 328.182 44.2687 328.182 45.2729V51.6365C328.182 52.6407 328.996 53.4547 330 53.4547H336.364C337.368 53.4547 338.182 52.6407 338.182 51.6365V45.2729C338.182 44.2687 337.368 43.4547 336.364 43.4547Z" fill="#EBEDF0"/>
<path d="M336.364 57.091H330C328.996 57.091 328.182 57.9051 328.182 58.9092V65.2729C328.182 66.277 328.996 67.091 330 67.091H336.364C337.368 67.091 338.182 66.277 338.182 65.2729V58.9092C338.182 57.9051 337.368 57.091 336.364 57.091Z" fill="#EBEDF0"/>
<path d="M336.364 70.7274H330C328.996 70.7274 328.182 71.5414 328.182 72.5456V78.9092C328.182 79.9134 328.996 80.7274 330 80.7274H336.364C337.368 80.7274 338.182 79.9134 338.182 78.9092V72.5456C338.182 71.5414 337.368 70.7274 336.364 70.7274Z" fill="#EBEDF0"/>
<path d="M336.364 84.3638H330C328.996 84.3638 328.182 85.1778 328.182 86.182V92.5456C328.182 93.5497 328.996 94.3638 330 94.3638H336.364C337.368 94.3638 338.182 93.5497 338.182 92.5456V86.182C338.182 85.1778 337.368 84.3638 336.364 84.3638Z" fill="#EBEDF0"/>
<path d="M336.364 98.0001H330C328.996 98.0001 328.182 98.8141 328.182 99.8183V106.182C328.182 107.186 328.996 108 330 108H336.364C337.368 108 338.182 107.186 338.182 106.182V99.8183C338.182 98.8141 337.368 98.0001 336.364 98.0001Z" fill="#EBEDF0"/>
<path d="M336.364 111.636H330C328.996 111.636 328.182 112.451 328.182 113.455V119.818C328.182 120.822 328.996 121.636 330 121.636H336.364C337.368 121.636 338.182 120.822 338.182 119.818V113.455C338.182 112.451 337.368 111.636 336.364 111.636Z" fill="#EBEDF0"/>
<path d="M350 29.8183H343.636C342.632 29.8183 341.818 30.6324 341.818 31.6365V38.0001C341.818 39.0043 342.632 39.8183 343.636 39.8183H350C351.004 39.8183 351.818 39.0043 351.818 38.0001V31.6365C351.818 30.6324 351.004 29.8183 350 29.8183Z" fill="#EBEDF0"/>
<path d="M350 43.4547H343.636C342.632 43.4547 341.818 44.2687 341.818 45.2729V51.6365C341.818 52.6407 342.632 53.4547 343.636 53.4547H350C351.004 53.4547 351.818 52.6407 351.818 51.6365V45.2729C351.818 44.2687 351.004 43.4547 350 43.4547Z" fill="#9BE9A8"/>
<path d="M350 57.091H343.636C342.632 57.091 341.818 57.9051 341.818 58.9092V65.2729C341.818 66.277 342.632 67.091 343.636 67.091H350C351.004 67.091 351.818 66.277 351.818 65.2729V58.9092C351.818 57.9051 351.004 57.091 350 57.091Z" fill="#EBEDF0"/>
<path d="M350 70.7274H343.636C342.632 70.7274 341.818 71.5414 341.818 72.5456V78.9092C341.818 79.9134 342.632 80.7274 343.636 80.7274H350C351.004 80.7274 351.818 79.9134 351.818 78.9092V72.5456C351.818 71.5414 351.004 70.7274 350 70.7274Z" fill="#EBEDF0"/>
<path d="M29.468 21.6365H28.4608L31.374 13.7026H32.3658L35.279 21.6365H34.2718L31.9009 14.9578H31.8389L29.468 21.6365ZM29.8399 18.5373H33.8999V19.3896H29.8399V18.5373ZM40.1408 19.2037V15.6861H41.0551V21.6365H40.1408V20.6293H40.0788C39.9394 20.9314 39.7224 21.1884 39.428 21.4002C39.1336 21.6094 38.7617 21.714 38.3123 21.714C37.9404 21.714 37.6098 21.6326 37.3206 21.4699C37.0313 21.3046 36.804 21.0567 36.6388 20.7261C36.4735 20.393 36.3908 19.9733 36.3908 19.4671V15.6861H37.3051V19.4051C37.3051 19.839 37.4265 20.1851 37.6692 20.4433C37.9146 20.7016 38.2271 20.8307 38.6067 20.8307C38.834 20.8307 39.0651 20.7726 39.3002 20.6564C39.5378 20.5402 39.7366 20.362 39.8968 20.1218C40.0595 19.8816 40.1408 19.5756 40.1408 19.2037ZM45.1315 23.9919C44.6898 23.9919 44.3102 23.9351 43.9925 23.8214C43.6748 23.7104 43.4101 23.5632 43.1983 23.3798C42.9892 23.199 42.8226 23.0053 42.6986 22.7987L43.4269 22.2873C43.5096 22.3958 43.6142 22.5198 43.7407 22.6592C43.8673 22.8013 44.0403 22.924 44.2598 23.0273C44.4819 23.1331 44.7725 23.1861 45.1315 23.1861C45.6118 23.1861 46.0083 23.0699 46.3208 22.8374C46.6333 22.605 46.7895 22.2408 46.7895 21.745V20.5363H46.712C46.6449 20.6448 46.5493 20.7791 46.4254 20.9392C46.304 21.0967 46.1284 21.2375 45.8985 21.3615C45.6712 21.4828 45.3639 21.5435 44.9765 21.5435C44.4961 21.5435 44.0648 21.4299 43.6826 21.2026C43.3029 20.9753 43.0021 20.6448 42.78 20.2109C42.5604 19.777 42.4507 19.2501 42.4507 18.6303C42.4507 18.0208 42.5579 17.4901 42.7722 17.0381C42.9866 16.5836 43.2849 16.2323 43.6671 15.9844C44.0493 15.7339 44.491 15.6086 44.992 15.6086C45.3794 15.6086 45.6867 15.6732 45.914 15.8023C46.1439 15.9289 46.3195 16.0735 46.4409 16.2362C46.5648 16.3963 46.6604 16.528 46.7275 16.6313H46.8205V15.6861H47.7038V21.807C47.7038 22.3183 47.5876 22.7341 47.3551 23.0544C47.1253 23.3772 46.8153 23.6135 46.4254 23.7633C46.038 23.9157 45.6067 23.9919 45.1315 23.9919ZM45.1005 20.7222C45.4672 20.7222 45.7771 20.6383 46.0302 20.4704C46.2833 20.3026 46.4757 20.0611 46.6074 19.746C46.7392 19.4309 46.805 19.0539 46.805 18.6148C46.805 18.1861 46.7404 17.8077 46.6113 17.4797C46.4822 17.1517 46.2911 16.8948 46.038 16.7088C45.7849 16.5229 45.4724 16.4299 45.1005 16.4299C44.7131 16.4299 44.3902 16.528 44.132 16.7243C43.8763 16.9206 43.6839 17.184 43.5548 17.5146C43.4282 17.8452 43.3649 18.2119 43.3649 18.6148C43.3649 19.028 43.4295 19.3935 43.5586 19.7111C43.6903 20.0262 43.884 20.2742 44.1397 20.4549C44.398 20.6331 44.7182 20.7222 45.1005 20.7222Z" fill="#24292F"/>
<path d="M88.0269 15.6861C87.9804 15.2935 87.7919 14.9888 87.4613 14.7718C87.1307 14.5549 86.7252 14.4464 86.2449 14.4464C85.8936 14.4464 85.5863 14.5032 85.3229 14.6169C85.062 14.7305 84.858 14.8868 84.7108 15.0856C84.5661 15.2845 84.4938 15.5105 84.4938 15.7636C84.4938 15.9753 84.5442 16.1574 84.6449 16.3098C84.7482 16.4596 84.8799 16.5849 85.0401 16.6856C85.2002 16.7837 85.368 16.8651 85.5437 16.9296C85.7193 16.9916 85.8807 17.042 86.0279 17.0807L86.8337 17.2977C87.0403 17.3519 87.2702 17.4268 87.5233 17.5224C87.7789 17.6179 88.023 17.7483 88.2554 17.9136C88.4905 18.0763 88.6842 18.2855 88.8365 18.5412C88.9889 18.7969 89.0651 19.1107 89.0651 19.4826C89.0651 19.9113 88.9528 20.2987 88.7281 20.6448C88.506 20.9908 88.1805 21.2659 87.7518 21.4699C87.3257 21.674 86.8079 21.776 86.1984 21.776C85.6302 21.776 85.1382 21.6843 84.7224 21.5009C84.3092 21.3175 83.9838 21.0619 83.7461 20.7339C83.5111 20.4059 83.3781 20.0249 83.3471 19.5911H84.3389C84.3647 19.8906 84.4654 20.1386 84.641 20.3349C84.8192 20.5286 85.0439 20.6732 85.3151 20.7687C85.5889 20.8617 85.8833 20.9082 86.1984 20.9082C86.5651 20.9082 86.8944 20.8488 87.1862 20.73C87.4781 20.6086 87.7092 20.4407 87.8797 20.2264C88.0501 20.0094 88.1354 19.7563 88.1354 19.4671C88.1354 19.2037 88.0617 18.9893 87.9145 18.824C87.7673 18.6587 87.5736 18.5244 87.3334 18.4211C87.0933 18.3178 86.8337 18.2274 86.5548 18.1499L85.5785 17.871C84.9587 17.6928 84.468 17.4384 84.1064 17.1078C83.7449 16.7773 83.5641 16.3447 83.5641 15.8101C83.5641 15.3658 83.6842 14.9784 83.9244 14.6479C84.1671 14.3147 84.4925 14.0564 84.9006 13.8731C85.3112 13.6871 85.7697 13.5942 86.2758 13.5942C86.7872 13.5942 87.2418 13.6858 87.6395 13.8692C88.0372 14.05 88.3523 14.2979 88.5847 14.613C88.8198 14.9281 88.9437 15.2858 88.9566 15.6861H88.0269ZM93.0156 21.7605C92.4422 21.7605 91.9477 21.6339 91.5319 21.3808C91.1186 21.1251 90.7997 20.7687 90.575 20.3116C90.3529 19.8519 90.2418 19.3173 90.2418 18.7078C90.2418 18.0983 90.3529 17.5611 90.575 17.0962C90.7997 16.6288 91.1122 16.2646 91.5125 16.0038C91.9154 15.7403 92.3854 15.6086 92.9226 15.6086C93.2325 15.6086 93.5386 15.6603 93.8407 15.7636C94.1429 15.8669 94.418 16.0347 94.6659 16.2672C94.9138 16.497 95.1114 16.8018 95.2586 17.1814C95.4058 17.5611 95.4794 18.0286 95.4794 18.5838V18.9712H90.8926V18.1809H94.5497C94.5497 17.8452 94.4825 17.5456 94.3482 17.2822C94.2165 17.0187 94.028 16.8108 93.7826 16.6585C93.5399 16.5061 93.2532 16.4299 92.9226 16.4299C92.5585 16.4299 92.2434 16.5203 91.9774 16.7011C91.7139 16.8793 91.5112 17.1117 91.3691 17.3984C91.2271 17.6851 91.1561 17.9924 91.1561 18.3204V18.8472C91.1561 19.2966 91.2336 19.6776 91.3885 19.9901C91.5461 20.3 91.7643 20.5363 92.0432 20.699C92.3221 20.8591 92.6463 20.9392 93.0156 20.9392C93.2558 20.9392 93.4727 20.9056 93.6664 20.8385C93.8627 20.7687 94.0319 20.6654 94.1739 20.5286C94.3159 20.3891 94.4257 20.2161 94.5032 20.0094L95.3864 20.2574C95.2935 20.557 95.1372 20.8204 94.9177 21.0477C94.6982 21.2724 94.427 21.448 94.1042 21.5745C93.7813 21.6985 93.4185 21.7605 93.0156 21.7605ZM96.8702 23.8679V15.6861H97.7534V16.6313H97.8619C97.9291 16.528 98.022 16.3963 98.1408 16.2362C98.2622 16.0735 98.4353 15.9289 98.66 15.8023C98.8872 15.6732 99.1946 15.6086 99.582 15.6086C100.083 15.6086 100.525 15.7339 100.907 15.9844C101.289 16.2349 101.587 16.59 101.802 17.0497C102.016 17.5094 102.123 18.0518 102.123 18.6768C102.123 19.307 102.016 19.8532 101.802 20.3155C101.587 20.7752 101.29 21.1316 100.911 21.3847C100.531 21.6352 100.093 21.7605 99.5975 21.7605C99.2152 21.7605 98.9092 21.6972 98.6793 21.5706C98.4495 21.4415 98.2726 21.2956 98.1486 21.1329C98.0246 20.9676 97.9291 20.8307 97.8619 20.7222H97.7844V23.8679H96.8702ZM97.7689 18.6613C97.7689 19.1107 97.8348 19.5071 97.9665 19.8506C98.0982 20.1915 98.2906 20.4588 98.5437 20.6525C98.7968 20.8436 99.1067 20.9392 99.4735 20.9392C99.8557 20.9392 100.175 20.8385 100.43 20.637C100.689 20.433 100.882 20.1592 101.011 19.8157C101.143 19.4697 101.209 19.0849 101.209 18.6613C101.209 18.2429 101.144 17.8658 101.015 17.5301C100.889 17.1918 100.696 16.9245 100.438 16.7282C100.182 16.5293 99.8609 16.4299 99.4735 16.4299C99.1016 16.4299 98.7891 16.5242 98.536 16.7127C98.2829 16.8986 98.0918 17.1595 97.9626 17.4952C97.8335 17.8284 97.7689 18.2171 97.7689 18.6613Z" fill="#24292F"/>
<path d="M144.928 17.6696C144.928 18.5063 144.777 19.2295 144.474 19.839C144.172 20.4485 143.758 20.9185 143.231 21.2491C142.704 21.5797 142.102 21.745 141.426 21.745C140.749 21.745 140.147 21.5797 139.62 21.2491C139.093 20.9185 138.679 20.4485 138.377 19.839C138.075 19.2295 137.924 18.5063 137.924 17.6696C137.924 16.8328 138.075 16.1096 138.377 15.5001C138.679 14.8906 139.093 14.4206 139.62 14.09C140.147 13.7594 140.749 13.5942 141.426 13.5942C142.102 13.5942 142.704 13.7594 143.231 14.09C143.758 14.4206 144.172 14.8906 144.474 15.5001C144.777 16.1096 144.928 16.8328 144.928 17.6696ZM143.998 17.6696C143.998 16.9826 143.883 16.4028 143.653 15.9302C143.426 15.4575 143.117 15.0998 142.727 14.8571C142.34 14.6143 141.906 14.4929 141.426 14.4929C140.945 14.4929 140.51 14.6143 140.12 14.8571C139.733 15.0998 139.424 15.4575 139.194 15.9302C138.967 16.4028 138.853 16.9826 138.853 17.6696C138.853 18.3565 138.967 18.9364 139.194 19.409C139.424 19.8816 139.733 20.2393 140.12 20.4821C140.51 20.7248 140.945 20.8462 141.426 20.8462C141.906 20.8462 142.34 20.7248 142.727 20.4821C143.117 20.2393 143.426 19.8816 143.653 19.409C143.883 18.9364 143.998 18.3565 143.998 17.6696ZM148.836 21.7605C148.279 21.7605 147.798 21.6288 147.395 21.3653C146.992 21.1019 146.683 20.739 146.466 20.2767C146.249 19.8144 146.14 19.2863 146.14 18.6923C146.14 18.088 146.251 17.5546 146.473 17.0923C146.698 16.6275 147.011 16.2646 147.411 16.0038C147.814 15.7403 148.284 15.6086 148.821 15.6086C149.239 15.6086 149.616 15.6861 149.952 15.8411C150.288 15.996 150.563 16.213 150.777 16.4919C150.992 16.7708 151.125 17.0962 151.176 17.4681H150.262C150.192 17.1969 150.037 16.9568 149.797 16.7476C149.56 16.5358 149.239 16.4299 148.836 16.4299C148.48 16.4299 148.168 16.5229 147.899 16.7088C147.633 16.8922 147.425 17.1517 147.275 17.4875C147.128 17.8206 147.054 18.2119 147.054 18.6613C147.054 19.121 147.127 19.5213 147.271 19.8622C147.419 20.2031 147.625 20.4679 147.891 20.6564C148.16 20.8449 148.475 20.9392 148.836 20.9392C149.074 20.9392 149.29 20.8979 149.483 20.8152C149.677 20.7326 149.841 20.6138 149.975 20.4588C150.11 20.3039 150.205 20.1179 150.262 19.901H151.176C151.125 20.2522 150.997 20.5686 150.793 20.8501C150.591 21.129 150.324 21.3511 149.991 21.5164C149.66 21.6791 149.276 21.7605 148.836 21.7605ZM155.101 15.6861V16.4609H152.017V15.6861H155.101ZM152.916 14.2605H153.83V19.932C153.83 20.1902 153.867 20.3839 153.942 20.5131C154.02 20.6396 154.118 20.7248 154.237 20.7687C154.358 20.8101 154.486 20.8307 154.62 20.8307C154.721 20.8307 154.804 20.8256 154.868 20.8152C154.933 20.8023 154.984 20.792 155.023 20.7842L155.209 21.6055C155.147 21.6288 155.061 21.652 154.95 21.6752C154.839 21.7011 154.698 21.714 154.527 21.714C154.269 21.714 154.016 21.6585 153.768 21.5474C153.523 21.4364 153.319 21.2672 153.156 21.0399C152.996 20.8126 152.916 20.526 152.916 20.1799V14.2605Z" fill="#24292F"/>
<path d="M212.707 13.7026V21.6365H211.777L207.454 15.4072H207.376V21.6365H206.415V13.7026H207.345L211.684 19.9475H211.761V13.7026H212.707ZM216.922 21.7605C216.385 21.7605 215.914 21.6326 215.509 21.3769C215.106 21.1213 214.791 20.7636 214.563 20.3039C214.339 19.8441 214.226 19.307 214.226 18.6923C214.226 18.0725 214.339 17.5314 214.563 17.0691C214.791 16.6068 215.106 16.2478 215.509 15.9921C215.914 15.7365 216.385 15.6086 216.922 15.6086C217.46 15.6086 217.93 15.7365 218.333 15.9921C218.738 16.2478 219.053 16.6068 219.278 17.0691C219.505 17.5314 219.619 18.0725 219.619 18.6923C219.619 19.307 219.505 19.8441 219.278 20.3039C219.053 20.7636 218.738 21.1213 218.333 21.3769C217.93 21.6326 217.46 21.7605 216.922 21.7605ZM216.922 20.9392C217.331 20.9392 217.666 20.8346 217.93 20.6254C218.193 20.4162 218.388 20.1412 218.515 19.8002C218.641 19.4593 218.705 19.09 218.705 18.6923C218.705 18.2946 218.641 17.924 218.515 17.5805C218.388 17.237 218.193 16.9593 217.93 16.7476C217.666 16.5358 217.331 16.4299 216.922 16.4299C216.514 16.4299 216.179 16.5358 215.915 16.7476C215.652 16.9593 215.457 17.237 215.33 17.5805C215.204 17.924 215.14 18.2946 215.14 18.6923C215.14 19.09 215.204 19.4593 215.33 19.8002C215.457 20.1412 215.652 20.4162 215.915 20.6254C216.179 20.8346 216.514 20.9392 216.922 20.9392ZM225.667 15.6861L223.467 21.6365H222.537L220.336 15.6861H221.328L222.971 20.4278H223.033L224.675 15.6861H225.667Z" fill="#24292F"/>
<path d="M263.409 21.6365H260.961V13.7026H263.518C264.287 13.7026 264.946 13.8615 265.493 14.1791C266.041 14.4942 266.46 14.9475 266.752 15.5389C267.044 16.1277 267.19 16.8328 267.19 17.6541C267.19 18.4805 267.043 19.192 266.748 19.7886C266.454 20.3826 266.025 20.8398 265.462 21.16C264.899 21.4777 264.215 21.6365 263.409 21.6365ZM261.921 20.7842H263.347C264.003 20.7842 264.547 20.6577 264.978 20.4046C265.409 20.1515 265.731 19.7912 265.943 19.3237C266.154 18.8563 266.26 18.2997 266.26 17.6541C266.26 17.0136 266.156 16.4622 265.947 15.9999C265.737 15.535 265.425 15.1786 265.009 14.9307C264.593 14.6802 264.075 14.5549 263.456 14.5549H261.921V20.7842ZM271.173 21.7605C270.599 21.7605 270.105 21.6339 269.689 21.3808C269.276 21.1251 268.957 20.7687 268.732 20.3116C268.51 19.8519 268.399 19.3173 268.399 18.7078C268.399 18.0983 268.51 17.5611 268.732 17.0962C268.957 16.6288 269.269 16.2646 269.669 16.0038C270.072 15.7403 270.542 15.6086 271.08 15.6086C271.389 15.6086 271.696 15.6603 271.998 15.7636C272.3 15.8669 272.575 16.0347 272.823 16.2672C273.071 16.497 273.268 16.8018 273.416 17.1814C273.563 17.5611 273.636 18.0286 273.636 18.5838V18.9712H269.05V18.1809H272.707C272.707 17.8452 272.639 17.5456 272.505 17.2822C272.373 17.0187 272.185 16.8108 271.94 16.6585C271.697 16.5061 271.41 16.4299 271.08 16.4299C270.715 16.4299 270.4 16.5203 270.134 16.7011C269.871 16.8793 269.668 17.1117 269.526 17.3984C269.384 17.6851 269.313 17.9924 269.313 18.3204V18.8472C269.313 19.2966 269.39 19.6776 269.545 19.9901C269.703 20.3 269.921 20.5363 270.2 20.699C270.479 20.8591 270.803 20.9392 271.173 20.9392C271.413 20.9392 271.63 20.9056 271.823 20.8385C272.02 20.7687 272.189 20.6654 272.331 20.5286C272.473 20.3891 272.583 20.2161 272.66 20.0094L273.543 20.2574C273.45 20.557 273.294 20.8204 273.075 21.0477C272.855 21.2724 272.584 21.448 272.261 21.5745C271.938 21.6985 271.575 21.7605 271.173 21.7605ZM277.444 21.7605C276.887 21.7605 276.406 21.6288 276.003 21.3653C275.6 21.1019 275.291 20.739 275.074 20.2767C274.857 19.8144 274.748 19.2863 274.748 18.6923C274.748 18.088 274.859 17.5546 275.081 17.0923C275.306 16.6275 275.619 16.2646 276.019 16.0038C276.422 15.7403 276.892 15.6086 277.429 15.6086C277.847 15.6086 278.224 15.6861 278.56 15.8411C278.896 15.996 279.171 16.213 279.385 16.4919C279.6 16.7708 279.733 17.0962 279.784 17.4681H278.87C278.8 17.1969 278.645 16.9568 278.405 16.7476C278.168 16.5358 277.847 16.4299 277.444 16.4299C277.088 16.4299 276.776 16.5229 276.507 16.7088C276.241 16.8922 276.033 17.1517 275.883 17.4875C275.736 17.8206 275.662 18.2119 275.662 18.6613C275.662 19.121 275.735 19.5213 275.879 19.8622C276.027 20.2031 276.233 20.4679 276.499 20.6564C276.768 20.8449 277.083 20.9392 277.444 20.9392C277.682 20.9392 277.898 20.8979 278.091 20.8152C278.285 20.7326 278.449 20.6138 278.583 20.4588C278.718 20.3039 278.813 20.1179 278.87 19.901H279.784C279.733 20.2522 279.605 20.5686 279.401 20.8501C279.199 21.129 278.932 21.3511 278.599 21.5164C278.268 21.6791 277.884 21.7605 277.444 21.7605Z" fill="#24292F"/>
<path d="M318.543 13.7026H319.504V19.3741C319.504 19.8803 319.411 20.3103 319.225 20.6641C319.039 21.018 318.777 21.2866 318.439 21.4699C318.1 21.6533 317.701 21.745 317.242 21.745C316.808 21.745 316.422 21.6662 316.083 21.5087C315.745 21.3485 315.479 21.1213 315.285 20.8268C315.092 20.5324 314.995 20.1825 314.995 19.777H315.94C315.94 20.0017 315.996 20.198 316.107 20.3658C316.22 20.5311 316.375 20.6603 316.571 20.7532C316.768 20.8462 316.991 20.8927 317.242 20.8927C317.518 20.8927 317.753 20.8346 317.947 20.7184C318.14 20.6022 318.288 20.4317 318.388 20.207C318.492 19.9797 318.543 19.7021 318.543 19.3741V13.7026ZM323.057 21.776C322.679 21.776 322.337 21.7049 322.03 21.5629C321.723 21.4183 321.479 21.2104 321.298 20.9392C321.117 20.6654 321.027 20.3349 321.027 19.9475C321.027 19.6065 321.094 19.3302 321.228 19.1184C321.362 18.9041 321.542 18.7362 321.766 18.6148C321.991 18.4934 322.239 18.403 322.51 18.3436C322.784 18.2817 323.059 18.2326 323.335 18.1964C323.697 18.1499 323.99 18.1151 324.215 18.0918C324.442 18.066 324.607 18.0234 324.711 17.964C324.817 17.9046 324.87 17.8013 324.87 17.6541V17.6231C324.87 17.2408 324.765 16.9438 324.556 16.7321C324.349 16.5203 324.035 16.4144 323.614 16.4144C323.178 16.4144 322.836 16.51 322.588 16.7011C322.34 16.8922 322.166 17.0962 322.065 17.3132L321.197 17.0032C321.352 16.6417 321.559 16.3602 321.817 16.1587C322.078 15.9547 322.362 15.8126 322.669 15.7326C322.979 15.6499 323.284 15.6086 323.583 15.6086C323.774 15.6086 323.994 15.6319 324.242 15.6783C324.492 15.7222 324.734 15.8139 324.966 15.9534C325.201 16.0929 325.396 16.3033 325.551 16.5849C325.706 16.8664 325.784 17.2434 325.784 17.7161V21.6365H324.87V20.8307H324.823C324.761 20.9599 324.658 21.098 324.513 21.2452C324.368 21.3924 324.176 21.5177 323.936 21.621C323.696 21.7243 323.403 21.776 323.057 21.776ZM323.196 20.9547C323.558 20.9547 323.862 20.8837 324.11 20.7416C324.361 20.5996 324.549 20.4162 324.676 20.1915C324.805 19.9668 324.87 19.7305 324.87 19.4826V18.6458C324.831 18.6923 324.746 18.7349 324.614 18.7736C324.485 18.8098 324.335 18.8421 324.164 18.8705C323.997 18.8963 323.833 18.9196 323.672 18.9402C323.515 18.9583 323.387 18.9738 323.289 18.9867C323.051 19.0177 322.829 19.0681 322.623 19.1378C322.419 19.2049 322.253 19.307 322.127 19.4438C322.003 19.5781 321.941 19.7615 321.941 19.9939C321.941 20.3116 322.058 20.5518 322.293 20.7145C322.531 20.8746 322.832 20.9547 323.196 20.9547ZM328.367 18.057V21.6365H327.452V15.6861H328.336V16.6158H328.413C328.553 16.3137 328.764 16.0709 329.049 15.8875C329.333 15.7016 329.699 15.6086 330.149 15.6086C330.552 15.6086 330.904 15.6913 331.206 15.8565C331.509 16.0193 331.744 16.2672 331.911 16.6003C332.079 16.9309 332.163 17.3493 332.163 17.8555V21.6365H331.249V17.9175C331.249 17.45 331.128 17.0859 330.885 16.825C330.642 16.5616 330.309 16.4299 329.885 16.4299C329.594 16.4299 329.333 16.4932 329.103 16.6197C328.876 16.7463 328.696 16.9309 328.564 17.1737C328.433 17.4165 328.367 17.7109 328.367 18.057Z" fill="#24292F"/>
</g>
</g>
<path d="M5.45455 0.454545H362.545C365.307 0.454545 367.545 2.69312 367.545 5.45454V138.545H0.454545V5.45454C0.454545 2.69312 2.69312 0.454545 5.45455 0.454545Z" stroke="#905DE6" stroke-width="0.909091"/>
<defs>
<clipPath id="clip0_33_3457">
<rect width="337.455" height="143.636" fill="white" transform="translate(15.2728 8.00003)"/>
</clipPath>
<clipPath id="clip1_33_3457">
<rect width="748.182" height="116.364" fill="white" transform="translate(-395.455 11.6364)"/>
</clipPath>
</defs>
</svg>
