<svg width="395" height="830" viewBox="0 0 395 830" fill="none" xmlns="http://www.w3.org/2000/svg">
<rect width="395" height="830" rx="40" fill="white"/>
<path d="M125.02 410.36C124.767 411.213 124.367 411.927 123.82 412.5C123.273 413.073 122.627 413.5 121.88 413.78C121.133 414.06 120.313 414.2 119.42 414.2C118.113 414.2 116.98 413.927 116.02 413.38C115.073 412.833 114.34 412.053 113.82 411.04C113.313 410.027 113.06 408.813 113.06 407.4C113.06 405.987 113.313 404.773 113.82 403.76C114.34 402.747 115.073 401.967 116.02 401.42C116.98 400.873 118.1 400.6 119.38 400.6C120.287 400.6 121.107 400.727 121.84 400.98C122.573 401.22 123.193 401.593 123.7 402.1C124.22 402.607 124.6 403.247 124.84 404.02L122.34 405.08C122.113 404.28 121.767 403.713 121.3 403.38C120.833 403.033 120.233 402.86 119.5 402.86C118.78 402.86 118.147 403.033 117.6 403.38C117.067 403.727 116.653 404.24 116.36 404.92C116.067 405.587 115.92 406.413 115.92 407.4C115.92 408.373 116.053 409.2 116.32 409.88C116.6 410.56 117.007 411.073 117.54 411.42C118.073 411.767 118.727 411.94 119.5 411.94C120.22 411.94 120.84 411.747 121.36 411.36C121.893 410.973 122.267 410.387 122.48 409.6L125.02 410.36ZM131.652 403.8C132.666 403.8 133.552 404.007 134.312 404.42C135.086 404.833 135.686 405.427 136.112 406.2C136.552 406.973 136.772 407.907 136.772 409C136.772 410.08 136.552 411.013 136.112 411.8C135.686 412.573 135.086 413.167 134.312 413.58C133.552 413.993 132.666 414.2 131.652 414.2C130.652 414.2 129.766 413.993 128.992 413.58C128.219 413.167 127.612 412.573 127.172 411.8C126.746 411.013 126.532 410.08 126.532 409C126.532 407.907 126.746 406.973 127.172 406.2C127.612 405.427 128.219 404.833 128.992 404.42C129.766 404.007 130.652 403.8 131.652 403.8ZM131.652 405.84C131.146 405.84 130.712 405.96 130.352 406.2C130.006 406.427 129.739 406.773 129.552 407.24C129.366 407.707 129.272 408.293 129.272 409C129.272 409.707 129.366 410.293 129.552 410.76C129.739 411.227 130.006 411.58 130.352 411.82C130.712 412.047 131.146 412.16 131.652 412.16C132.146 412.16 132.566 412.047 132.912 411.82C133.272 411.58 133.546 411.227 133.732 410.76C133.919 410.293 134.012 409.707 134.012 409C134.012 408.293 133.919 407.707 133.732 407.24C133.546 406.773 133.272 406.427 132.912 406.2C132.566 405.96 132.146 405.84 131.652 405.84ZM139.065 414V404H141.525L141.625 405.8C141.958 405.133 142.412 404.633 142.985 404.3C143.572 403.967 144.218 403.8 144.925 403.8C145.645 403.8 146.292 403.967 146.865 404.3C147.452 404.633 147.892 405.127 148.185 405.78C148.398 405.34 148.685 404.973 149.045 404.68C149.405 404.387 149.805 404.167 150.245 404.02C150.685 403.873 151.132 403.8 151.585 403.8C152.238 403.8 152.832 403.933 153.365 404.2C153.912 404.467 154.345 404.867 154.665 405.4C154.985 405.933 155.145 406.613 155.145 407.44V414H152.405V407.98C152.405 407.247 152.245 406.727 151.925 406.42C151.605 406.113 151.192 405.96 150.685 405.96C150.285 405.96 149.912 406.06 149.565 406.26C149.232 406.46 148.965 406.76 148.765 407.16C148.578 407.547 148.485 408.033 148.485 408.62V414H145.745V407.98C145.745 407.247 145.578 406.727 145.245 406.42C144.925 406.113 144.512 405.96 144.005 405.96C143.658 405.96 143.312 406.053 142.965 406.24C142.632 406.427 142.352 406.72 142.125 407.12C141.912 407.52 141.805 408.047 141.805 408.7V414H139.065ZM157.971 418.2V404H160.431L160.611 407.18L160.271 406.82C160.391 406.233 160.611 405.713 160.931 405.26C161.265 404.807 161.685 404.453 162.191 404.2C162.698 403.933 163.265 403.8 163.891 403.8C164.705 403.8 165.431 404.007 166.071 404.42C166.711 404.833 167.211 405.427 167.571 406.2C167.945 406.96 168.131 407.887 168.131 408.98C168.131 410.073 167.945 411.013 167.571 411.8C167.198 412.573 166.685 413.167 166.031 413.58C165.391 413.993 164.658 414.2 163.831 414.2C162.951 414.2 162.218 413.953 161.631 413.46C161.058 412.967 160.665 412.347 160.451 411.6L160.711 411.18V418.2H157.971ZM163.031 412.1C163.765 412.1 164.338 411.84 164.751 411.32C165.178 410.787 165.391 410.013 165.391 409C165.391 407.987 165.185 407.22 164.771 406.7C164.371 406.167 163.805 405.9 163.071 405.9C162.605 405.9 162.191 406.027 161.831 406.28C161.485 406.52 161.211 406.873 161.011 407.34C160.811 407.793 160.711 408.347 160.711 409C160.711 409.64 160.805 410.193 160.991 410.66C161.178 411.127 161.445 411.487 161.791 411.74C162.151 411.98 162.565 412.1 163.031 412.1ZM173.21 399.62V410.92C173.21 411.387 173.29 411.713 173.45 411.9C173.61 412.087 173.877 412.18 174.25 412.18C174.477 412.18 174.664 412.167 174.81 412.14C174.957 412.1 175.144 412.047 175.37 411.98L175.13 413.78C174.904 413.913 174.617 414.013 174.27 414.08C173.937 414.16 173.604 414.2 173.27 414.2C172.297 414.2 171.584 413.967 171.13 413.5C170.69 413.02 170.47 412.26 170.47 411.22V399.62H173.21ZM181.537 414.2C180.484 414.2 179.564 413.993 178.777 413.58C178.004 413.167 177.404 412.573 176.977 411.8C176.55 411.027 176.337 410.093 176.337 409C176.337 407.907 176.55 406.973 176.977 406.2C177.404 405.427 177.997 404.833 178.757 404.42C179.53 404.007 180.41 403.8 181.397 403.8C182.41 403.8 183.27 404.007 183.977 404.42C184.684 404.82 185.224 405.373 185.597 406.08C185.97 406.773 186.157 407.567 186.157 408.46C186.157 408.727 186.15 408.98 186.137 409.22C186.124 409.46 186.104 409.673 186.077 409.86H178.097V407.96H184.877L183.557 408.44C183.557 407.6 183.364 406.953 182.977 406.5C182.604 406.047 182.07 405.82 181.377 405.82C180.87 405.82 180.43 405.94 180.057 406.18C179.697 406.42 179.424 406.78 179.237 407.26C179.05 407.727 178.957 408.32 178.957 409.04C178.957 409.747 179.057 410.333 179.257 410.8C179.47 411.253 179.764 411.593 180.137 411.82C180.524 412.047 180.984 412.16 181.517 412.16C182.104 412.16 182.577 412.047 182.937 411.82C183.297 411.593 183.577 411.28 183.777 410.88L185.957 411.72C185.744 412.24 185.417 412.687 184.977 413.06C184.55 413.433 184.037 413.72 183.437 413.92C182.85 414.107 182.217 414.2 181.537 414.2ZM191.843 400.94V410.74C191.843 411.22 191.963 411.573 192.203 411.8C192.457 412.013 192.797 412.12 193.223 412.12C193.557 412.12 193.85 412.073 194.103 411.98C194.357 411.873 194.583 411.733 194.783 411.56L195.223 413.38C194.903 413.633 194.503 413.833 194.023 413.98C193.543 414.127 193.037 414.2 192.503 414.2C191.837 414.2 191.243 414.1 190.723 413.9C190.217 413.7 189.817 413.38 189.523 412.94C189.243 412.5 189.103 411.913 189.103 411.18V401.7L191.843 400.94ZM195.043 404V406.04H187.263V404H195.043ZM201.537 414.2C200.484 414.2 199.564 413.993 198.777 413.58C198.004 413.167 197.404 412.573 196.977 411.8C196.55 411.027 196.337 410.093 196.337 409C196.337 407.907 196.55 406.973 196.977 406.2C197.404 405.427 197.997 404.833 198.757 404.42C199.53 404.007 200.41 403.8 201.397 403.8C202.41 403.8 203.27 404.007 203.977 404.42C204.684 404.82 205.224 405.373 205.597 406.08C205.97 406.773 206.157 407.567 206.157 408.46C206.157 408.727 206.15 408.98 206.137 409.22C206.124 409.46 206.104 409.673 206.077 409.86H198.097V407.96H204.877L203.557 408.44C203.557 407.6 203.364 406.953 202.977 406.5C202.604 406.047 202.07 405.82 201.377 405.82C200.87 405.82 200.43 405.94 200.057 406.18C199.697 406.42 199.424 406.78 199.237 407.26C199.05 407.727 198.957 408.32 198.957 409.04C198.957 409.747 199.057 410.333 199.257 410.8C199.47 411.253 199.764 411.593 200.137 411.82C200.524 412.047 200.984 412.16 201.517 412.16C202.104 412.16 202.577 412.047 202.937 411.82C203.297 411.593 203.577 411.28 203.777 410.88L205.957 411.72C205.744 412.24 205.417 412.687 204.977 413.06C204.55 413.433 204.037 413.72 203.437 413.92C202.85 414.107 202.217 414.2 201.537 414.2ZM220.412 400.8C221.426 400.8 222.292 400.973 223.012 401.32C223.732 401.653 224.286 402.14 224.672 402.78C225.072 403.407 225.272 404.167 225.272 405.06C225.272 405.953 225.072 406.72 224.672 407.36C224.286 407.987 223.732 408.473 223.012 408.82C222.292 409.153 221.426 409.32 220.412 409.32H217.632V414H214.872V400.8H220.412ZM219.992 407.14C220.819 407.14 221.439 406.967 221.852 406.62C222.266 406.26 222.472 405.74 222.472 405.06C222.472 404.367 222.266 403.847 221.852 403.5C221.439 403.153 220.819 402.98 219.992 402.98H217.632V407.14H219.992ZM227.522 414V404H229.902L230.082 405.96C230.349 405.267 230.735 404.733 231.242 404.36C231.762 403.987 232.409 403.8 233.182 403.8C233.409 403.8 233.615 403.82 233.802 403.86C233.989 403.9 234.142 403.953 234.262 404.02L233.942 406.32C233.809 406.267 233.642 406.227 233.442 406.2C233.255 406.173 233.009 406.16 232.702 406.16C232.302 406.16 231.915 406.26 231.542 406.46C231.169 406.647 230.862 406.94 230.622 407.34C230.382 407.727 230.262 408.22 230.262 408.82V414H227.522ZM240.324 403.8C241.338 403.8 242.224 404.007 242.984 404.42C243.758 404.833 244.358 405.427 244.784 406.2C245.224 406.973 245.444 407.907 245.444 409C245.444 410.08 245.224 411.013 244.784 411.8C244.358 412.573 243.758 413.167 242.984 413.58C242.224 413.993 241.338 414.2 240.324 414.2C239.324 414.2 238.438 413.993 237.664 413.58C236.891 413.167 236.284 412.573 235.844 411.8C235.418 411.013 235.204 410.08 235.204 409C235.204 407.907 235.418 406.973 235.844 406.2C236.284 405.427 236.891 404.833 237.664 404.42C238.438 404.007 239.324 403.8 240.324 403.8ZM240.324 405.84C239.818 405.84 239.384 405.96 239.024 406.2C238.678 406.427 238.411 406.773 238.224 407.24C238.038 407.707 237.944 408.293 237.944 409C237.944 409.707 238.038 410.293 238.224 410.76C238.411 411.227 238.678 411.58 239.024 411.82C239.384 412.047 239.818 412.16 240.324 412.16C240.818 412.16 241.238 412.047 241.584 411.82C241.944 411.58 242.218 411.227 242.404 410.76C242.591 410.293 242.684 409.707 242.684 409C242.684 408.293 242.591 407.707 242.404 407.24C242.218 406.773 241.944 406.427 241.584 406.2C241.238 405.96 240.818 405.84 240.324 405.84ZM252.099 399.42C252.566 399.42 252.986 399.473 253.359 399.58C253.746 399.673 254.033 399.793 254.219 399.94L253.839 401.76C253.693 401.667 253.526 401.593 253.339 401.54C253.153 401.487 252.933 401.46 252.679 401.46C252.159 401.46 251.746 401.58 251.439 401.82C251.133 402.047 250.979 402.44 250.979 403V404.38L251.099 404.92V414H248.359V402.8C248.359 402.24 248.453 401.747 248.639 401.32C248.826 400.893 249.086 400.54 249.419 400.26C249.753 399.98 250.146 399.773 250.599 399.64C251.066 399.493 251.566 399.42 252.099 399.42ZM254.139 404V406.04H246.619V404H254.139ZM257.159 402.56C256.586 402.56 256.159 402.44 255.879 402.2C255.599 401.947 255.459 401.58 255.459 401.1C255.459 400.607 255.599 400.24 255.879 400C256.159 399.747 256.586 399.62 257.159 399.62C257.733 399.62 258.159 399.747 258.439 400C258.719 400.24 258.859 400.607 258.859 401.1C258.859 401.58 258.719 401.947 258.439 402.2C258.159 402.44 257.733 402.56 257.159 402.56ZM258.519 404V414H255.779V404H258.519ZM264.128 399.62V410.92C264.128 411.387 264.208 411.713 264.368 411.9C264.528 412.087 264.795 412.18 265.168 412.18C265.395 412.18 265.582 412.167 265.728 412.14C265.875 412.1 266.062 412.047 266.288 411.98L266.048 413.78C265.822 413.913 265.535 414.013 265.188 414.08C264.855 414.16 264.522 414.2 264.188 414.2C263.215 414.2 262.502 413.967 262.048 413.5C261.608 413.02 261.388 412.26 261.388 411.22V399.62H264.128ZM272.455 414.2C271.402 414.2 270.482 413.993 269.695 413.58C268.922 413.167 268.322 412.573 267.895 411.8C267.468 411.027 267.255 410.093 267.255 409C267.255 407.907 267.468 406.973 267.895 406.2C268.322 405.427 268.915 404.833 269.675 404.42C270.448 404.007 271.328 403.8 272.315 403.8C273.328 403.8 274.188 404.007 274.895 404.42C275.602 404.82 276.142 405.373 276.515 406.08C276.888 406.773 277.075 407.567 277.075 408.46C277.075 408.727 277.068 408.98 277.055 409.22C277.042 409.46 277.022 409.673 276.995 409.86H269.015V407.96H275.795L274.475 408.44C274.475 407.6 274.282 406.953 273.895 406.5C273.522 406.047 272.988 405.82 272.295 405.82C271.788 405.82 271.348 405.94 270.975 406.18C270.615 406.42 270.342 406.78 270.155 407.26C269.968 407.727 269.875 408.32 269.875 409.04C269.875 409.747 269.975 410.333 270.175 410.8C270.388 411.253 270.682 411.593 271.055 411.82C271.442 412.047 271.902 412.16 272.435 412.16C273.022 412.16 273.495 412.047 273.855 411.82C274.215 411.593 274.495 411.28 274.695 410.88L276.875 411.72C276.662 412.24 276.335 412.687 275.895 413.06C275.468 413.433 274.955 413.72 274.355 413.92C273.768 414.107 273.135 414.2 272.455 414.2Z" fill="#1D1617"/>
<path fill-rule="evenodd" clip-rule="evenodd" d="M186.418 337.733C168.057 334.451 152.191 323.255 133.64 321.323C104.431 318.283 61.6928 348.531 46.667 323.185C30.2989 295.575 89.2261 266.471 82.4976 235.055C75.9012 204.254 18.2844 202.988 14.2336 171.747C10.8809 145.889 44.3622 128.313 67.0038 115.561C87.2949 104.133 111.654 104.26 134.911 103.782C152.574 103.419 169.117 116.701 186.418 113.106C209.893 108.227 225.354 79.7067 249.324 80.0023C272.009 80.282 306.755 91.8041 307.04 114.593C307.461 148.173 238.678 165.165 250.784 196.469C265.667 234.956 339.169 215.256 359.781 250.977C373.031 273.939 342.4 303.001 321.953 319.808C302.064 336.155 274.567 338.591 249.089 341.961C228.067 344.742 207.293 341.465 186.418 337.733Z" fill="#CAA6EB"/>
<mask id="mask0_36_574" style="mask-type:alpha" maskUnits="userSpaceOnUse" x="0" y="0" width="375" height="350">
<rect width="375" height="350" rx="30" fill="#C4C4C4"/>
</mask>
<g mask="url(#mask0_36_574)">
<path d="M225.231 91.3478C225.231 91.3478 243.702 95.8013 251.015 104.396C258.328 112.991 255.814 135.143 253.907 147.896C252.001 160.648 246.89 169.867 252.938 174.321C258.985 178.774 261.154 174.649 261.154 174.649C261.154 174.649 252.938 188.651 244.277 190.574C235.617 192.496 223.571 181.65 221.665 172.102C219.758 162.554 218.477 148.208 220.021 138.331C221.566 128.455 224.59 125.102 226.118 118.414C227.646 111.725 226.43 100.583 226.43 100.583L225.231 91.3478Z" fill="#3B2645"/>
<path d="M198.478 332.938C235.417 332.938 265.362 307.841 265.362 276.883C265.362 245.924 235.417 220.828 198.478 220.828C161.538 220.828 131.593 245.924 131.593 276.883C131.593 307.841 161.538 332.938 198.478 332.938Z" fill="#AB8DA8"/>
<path d="M141.749 145.069L140.287 144.1L133.467 133.878L138.923 122.868L151.182 122.062L152.645 123.048L141.749 145.069Z" fill="#393762"/>
<path d="M154.008 144.28L141.749 145.069L134.929 134.848L140.368 123.837L152.644 123.048L159.448 133.27L154.008 144.28Z" fill="#636183"/>
<path d="M183.523 140.419C180.458 143.8 177.84 147.561 175.734 151.61C171.593 159.169 161.125 169.687 159.185 171.823C158.272 172.972 157.101 173.89 155.767 174.502C153.921 169.096 152.46 163.566 151.396 157.953C150.426 151.38 148.964 138.463 148.964 138.463L152.858 130.674C152.858 130.674 149.687 124.33 148.471 123.87C147.255 123.41 144.822 124.1 141.174 127.272C137.526 130.443 136.047 133.599 137.756 137.477C139.465 141.355 143.113 145.267 142.686 151.593C142.259 157.92 142.456 180.089 144.642 187.386C146.827 194.682 146.597 194.699 149.572 194.699C152.546 194.699 161.075 191.034 170.032 186.482C175.277 183.862 179.73 179.891 182.932 174.978L183.523 140.419Z" fill="#FFEDE5"/>
<path d="M202.027 136.534C197.941 135.84 193.76 135.918 189.702 136.764C183.655 138.227 180.516 142.089 179.3 149.106C178.084 156.123 173.745 164.833 176.654 171.406C179.563 177.98 182.208 183.025 182.455 188.333C182.573 193.399 182.337 198.468 181.748 203.501C181.268 204.507 180.719 205.479 180.105 206.41C180.105 206.41 179.612 210.272 167.517 206.886C155.422 203.501 139.958 204.471 124.001 208.102C108.044 211.734 99.5806 214.676 98.8575 219.951C98.1344 225.226 98.1344 258.143 99.5806 267.822C100.394 274.339 100.233 280.941 99.104 287.411C95.0962 290.2 90.7985 292.547 86.2858 294.411C79.5152 297.074 75.6533 298.52 76.853 300.985C78.0526 303.45 82.654 303.894 88.455 303.894C94.2561 303.894 102.243 303.417 102.243 303.417C102.243 303.417 94.9956 308.002 90.1477 311.141C85.2998 314.28 80.7313 315.019 82.9005 318.404C85.0697 321.79 105.907 320.82 110.953 320.82C115.998 320.82 121.832 318.881 122.308 316.712C122.785 314.543 120.862 307.032 120.862 304.14C120.862 301.248 120.139 288.413 123.031 282.612C125.924 276.811 130.295 259.885 130.048 253.36C129.802 246.836 129.325 242.728 129.325 242.728C129.325 242.728 157.098 246.54 167.944 250.402C178.79 254.264 202.997 257.42 214.369 251.865C225.741 246.31 230.326 239.523 228.633 229.86C226.941 220.198 222.339 213.903 223.555 202.531C224.771 191.159 224.755 180.05 227.664 174.496C230.572 168.941 237.096 159.015 236.603 152.491C236.11 145.967 224.032 139.344 217.984 137.011C211.937 134.677 202.027 136.534 202.027 136.534Z" fill="#FFEDE5"/>
<path d="M98.7918 220.532C98.0687 225.84 98.0687 258.724 99.5149 268.403C100.328 274.92 100.168 281.522 99.0383 287.992C95.0305 290.781 90.7328 293.128 86.2201 294.993C79.4495 297.655 75.5876 299.101 76.7873 301.566C77.9869 304.031 82.5883 304.475 88.3894 304.475C93.3194 304.475 99.7778 304.13 101.635 304.015C102.802 303.637 105.086 302.832 105.086 302.372C105.086 301.911 107.009 284.295 107.255 267.302C107.502 250.31 109.441 230.688 109.441 230.688L107.272 221.979C105.281 220.109 103.137 218.411 100.862 216.901C99.7567 217.822 99.0213 219.112 98.7918 220.532V220.532Z" fill="#FFEDE5"/>
<path d="M104.593 295.962C104.593 295.962 103.87 294.319 102.654 291.131C102.44 290.303 101.979 289.56 101.334 289C100.688 288.439 99.8878 288.088 99.0383 287.992C95.0305 290.781 90.7328 293.128 86.2201 294.993C79.4495 297.655 75.5876 299.101 76.7873 301.566C77.9869 304.031 82.5883 304.475 88.3894 304.475C93.3194 304.475 99.7778 304.13 101.635 304.015C102.802 303.637 105.086 302.832 105.086 302.372C105.086 302.109 105.316 299.742 105.645 296.077L104.593 295.962Z" fill="#3B2645"/>
<path d="M197.919 214.961C191.692 211.683 186.27 207.064 182.044 201.436C181.913 202.866 181.798 203.868 181.732 204.082C181.251 205.088 180.702 206.06 180.089 206.991C180.089 206.991 179.596 210.853 167.501 207.467C155.406 204.082 139.942 205.052 123.985 208.683C108.028 212.315 99.5644 215.257 98.8413 220.532C98.8413 220.779 98.8413 221.091 98.7427 221.452C99.6736 222.81 100.678 224.115 101.75 225.364C103.855 227.723 106.492 229.548 109.441 230.688C110.18 234.073 114.765 244.706 121.536 244.706C128.307 244.706 129.276 243.26 129.276 243.26C129.276 243.26 157.098 247.122 167.944 250.983C178.791 254.845 202.997 258.001 214.369 252.446C225.741 246.891 230.326 240.104 228.633 230.441C227.882 226.729 226.877 223.072 225.626 219.497C218.264 219.891 206.399 219.645 197.919 214.961Z" fill="#3B2645"/>
<path d="M181.748 204.082C181.267 205.088 180.718 206.06 180.105 206.991C180.105 206.991 179.612 210.853 167.517 207.468C155.422 204.082 139.958 205.052 124.001 208.684C108.044 212.316 99.5804 215.257 98.8573 220.532C98.7094 221.601 98.5944 223.819 98.5122 226.662C101.692 229.028 105.486 230.426 109.441 230.688C111.17 227.701 113.667 225.231 116.671 223.532C119.676 221.833 123.08 220.968 126.531 221.025C138.758 221.025 190.441 221.979 190.441 221.979L197.344 206.252C197.344 206.252 189.127 200.451 182.373 196.671C182.159 200.385 181.863 203.672 181.748 204.082Z" fill="#3B2645"/>
<path d="M223.653 205.348C224.278 202.669 236.603 188.503 237.836 183.573C239.068 178.643 243.587 163.639 239.479 155.012C235.37 146.384 230.227 144.33 230.227 144.33C226.452 141.555 222.344 139.264 218 137.51C211.969 135.094 202.043 137.033 202.043 137.033C197.957 136.339 193.776 136.417 189.718 137.263C183.671 138.726 180.532 142.588 179.316 149.605C178.1 156.622 173.745 165.414 176.653 171.988C179.562 178.561 182.208 183.606 182.454 188.914C182.573 193.98 182.337 199.049 181.748 204.082C181.267 205.088 180.718 206.06 180.104 206.991V207.09C181.896 210.787 186.004 218.593 190.523 221.978C194.766 222.109 198.845 223.64 202.125 226.333C207.055 230.688 213.021 231.641 219.545 231.641C222.641 231.518 225.705 230.965 228.649 229.998C227.006 221.387 223.21 215.389 223.473 205.89C223.569 205.723 223.63 205.539 223.653 205.348V205.348Z" fill="#AB8DA8"/>
<path d="M221.024 122.506C221.024 122.506 227.088 113.188 228.058 105.218C229.027 97.2478 227.581 89.8198 218.872 85.1527C210.162 80.4855 197.344 85.1527 193.482 89.8198C189.62 94.4869 190.096 103.361 189.127 105.3C188.157 107.239 183.802 110.378 184.295 111.594C184.788 112.81 187.927 114.47 187.927 114.47L189.571 121.964C190.047 124.149 191.493 127.042 193.186 127.042C195.487 126.802 197.77 126.418 200.022 125.891C200.022 125.891 200.499 133.451 199.069 136.491C197.146 140.599 187.237 165.217 191.592 167.715C195.947 170.213 214.369 150.887 219.677 146.778C224.985 142.67 218.033 137.592 218.033 137.592C218.033 137.592 215.651 137.494 216.62 131.446C217.046 128.057 218.597 124.909 221.024 122.506Z" fill="#FFEDE5"/>
<path d="M110.887 321.352C115.965 321.352 121.766 319.413 122.242 317.244C122.637 315.502 121.486 310.391 120.993 306.907C119.993 307.266 118.948 307.487 117.887 307.565C115.293 307.654 112.697 307.411 110.164 306.841C110.106 305.841 109.861 304.859 109.441 303.949C108.717 302.306 105.102 302.306 105.102 302.306L101.109 304.048H102.193C102.193 304.048 94.9462 308.633 90.0983 311.772C85.2504 314.91 80.6818 315.65 82.8511 319.035C85.0203 322.42 105.809 321.352 110.887 321.352Z" fill="#3B2645"/>
<path d="M231.181 106.894C232.134 98.924 227.582 89.8198 218.872 85.1526C211.592 81.3072 201.469 83.9037 196.046 87.5355C197.13 87.7318 198.105 88.316 198.79 89.1789C202.29 93.0079 200.433 100.009 203.572 103.197C206.711 106.385 208.338 105.432 208.338 105.432C208.338 105.432 211.855 99.6963 213.432 105.432C215.01 111.167 212.808 113.648 211.214 114.339C210.08 114.766 208.908 115.085 207.713 115.292C207.713 115.292 216.259 122.835 221.025 122.572C221.025 122.506 230.211 114.881 231.181 106.894Z" fill="#3B2645"/>
<path d="M145.94 148.52L144.494 147.534L137.674 137.313L143.113 126.302L155.373 125.513L156.835 126.483L145.94 148.52Z" fill="#393762"/>
<path d="M158.215 147.715L145.939 148.52L139.135 138.282L144.575 127.272L156.834 126.483L163.654 136.705L158.215 147.715Z" fill="#636183"/>
<path d="M243.521 240.104C241.814 236.084 240.824 231.796 240.596 227.434C240.596 222.981 235.485 211.494 235.485 208.946C236.177 198.94 237.406 188.978 239.166 179.103C241.96 169.703 241.73 159.531 239.478 155.012C237.227 150.492 228.172 151.314 225.707 158.709C223.242 166.104 223.39 180.451 223.39 180.451C222.568 186.893 222.01 201.256 221.747 209.883C221.566 217.558 223.193 225.298 226.874 230.82C232.083 238.642 234.548 248.896 236.142 248.896C237.737 248.896 246.183 247.845 246.183 247.845C246.183 247.845 246.627 246.974 243.521 240.104Z" fill="#FFEDE5"/>
<path d="M248.075 256.226C248.075 256.226 249.718 247.319 249.356 245.396C248.995 243.474 243.621 244.772 241.386 244.772C239.151 244.772 237.574 244.443 237.886 245.725C238.198 247.007 242.668 247.368 242.668 247.368L244.311 247.993L248.075 256.226Z" fill="#FFEDE5"/>
<path d="M259.002 249.915H226.2V254.369H259.002V249.915Z" fill="#636183"/>
<path d="M271.097 240.055H256.767V263.621H271.097V240.055Z" fill="#636183"/>
<path d="M226.825 240.055H212.495V263.621H226.825V240.055Z" fill="#636183"/>
<path d="M232.248 246.415L234.039 255.157C234.157 255.741 234.48 256.264 234.951 256.629C235.422 256.994 236.008 257.177 236.603 257.146C238.838 257.014 242.305 256.817 244.343 256.604C247.531 256.291 248.484 257.244 248.813 254.96C248.961 253.81 249.207 251.674 249.421 249.866C249.464 249.47 249.421 249.07 249.295 248.692C249.17 248.314 248.964 247.968 248.693 247.676C248.422 247.385 248.091 247.155 247.723 247.003C247.356 246.85 246.96 246.779 246.562 246.793C244.08 246.793 240.958 246.99 240.202 246.99C238.936 247.056 234.795 243.555 232.248 246.415Z" fill="#FFEDE5"/>
</g>
</svg>
